<svg width="469" height="500" viewBox="0 0 469 500" fill="none" xmlns="http://www.w3.org/2000/svg">
<g clip-path="url(#clip0)">
<path d="M450 384.63L199.93 240.23C196.42 238.23 193.58 232.77 193.58 228.1V34.63C193.58 29.95 196.42 27.8 199.93 29.83L450 174.23C453.51 176.23 456.35 181.69 456.35 186.36V379.83C456.39 384.51 453.55 386.66 450 384.63Z" fill="#B1B4C4"/>
<path d="M451.33 386.63L454.1 385.03L452.9 376.82L451.33 386.63Z" fill="#B1B4C4"/>
<path d="M193.13 31L195.86 29.42L199.78 31.66C199.78 31.66 195.6 32.29 195.5 32.27C195.4 32.25 193.13 31 193.13 31Z" fill="#B1B4C4"/>
<path d="M447.75 386L197.64 241.56C194.13 239.56 191.28 234.1 191.28 229.42V36C191.28 31.32 194.13 29.17 197.64 31.2L447.75 175.6C451.26 177.6 454.1 183.06 454.1 187.74V381.16C454.1 385.83 451.26 388 447.75 386Z" fill="#E4E7F2"/>
<path d="M447.31 386.21L197.2 241.81C193.69 239.81 190.84 234.35 190.84 229.67V36.2C190.84 31.53 193.69 29.38 197.2 31.4L447.31 175.8C450.81 177.8 453.66 183.26 453.66 187.94V381.41C453.66 386.09 450.81 388.24 447.31 386.21Z" fill="#D6D8E5"/>
<path d="M450.22 374.44L194 226.53L194.15 37C194.15 35.06 195.51 34.27 197.15 35.24L447.26 179.64C448.138 180.222 448.867 181.002 449.388 181.917C449.909 182.833 450.208 183.858 450.26 184.91L450.22 374.44Z" fill="white"/>
<path opacity="0.5" d="M450.14 374.45L194 226.54L194.08 37C194.08 35.06 195.44 34.27 197.08 35.24L447.19 179.64C448.068 180.222 448.796 181.003 449.317 181.918C449.838 182.833 450.137 183.858 450.19 184.91L450.14 374.45Z" fill="url(#paint0_linear)"/>
<path opacity="0.4" d="M258.67 498.63L8.56001 354.23C5.05001 352.23 5.49001 348.67 9.56001 346.33L177.11 249.59C181.11 247.26 187.29 247 190.79 249.03L440.91 393.43C444.41 395.43 443.97 398.99 439.91 401.33L272.35 498.07C268.3 500.4 262.17 500.66 258.67 498.63Z" fill="#D6D8E5"/>
<path d="M264.13 495.35L14 351C10.49 349 10.93 345.44 15 343.1L182.55 246.37C186.55 244.03 192.73 243.77 196.24 245.8L446.35 390.2C449.86 392.2 449.42 395.76 445.35 398.1L277.82 494.79C273.77 497.12 267.64 497.38 264.13 495.35Z" fill="#B1B4C4"/>
<path d="M11.65 347.69V342.97L16.95 345.19L11.65 347.69Z" fill="#B1B4C4"/>
<path d="M448.72 393.68V389.07L444.8 390.42L447.4 394.24L448.72 393.68Z" fill="#B1B4C4"/>
<path d="M264.13 491.38L14 347C10.49 345 10.93 341.44 15 339.1L182.55 242.36C186.55 240.02 192.73 239.77 196.24 241.8L446.35 386.2C449.86 388.2 449.42 391.76 445.35 394.1L277.82 490.81C273.77 493.15 267.64 493.41 264.13 491.38Z" fill="#E4E7F2"/>
<path d="M264.13 490.77L14 346.37C10.49 344.37 10.93 340.8 15 338.47L182.55 241.73C186.55 239.39 192.73 239.14 196.24 241.16L446.35 385.57C449.86 387.57 449.42 391.13 445.35 393.47L277.82 490.2C273.77 492.54 267.64 492.79 264.13 490.77Z" fill="#D6D8E5"/>
<path d="M177.91 274.36L166.27 267.64C165.27 267.09 165.44 266.13 166.53 265.5L177.65 259.08C178.212 258.767 178.84 258.591 179.482 258.565C180.125 258.539 180.765 258.664 181.35 258.93L193 265.65C193.95 266.2 193.83 267.16 192.73 267.79L181.62 274.21C181.056 274.523 180.427 274.699 179.783 274.725C179.139 274.751 178.497 274.626 177.91 274.36Z" fill="#2B303F"/>
<path d="M194.4 283.88L182.75 277.15C181.8 276.61 181.92 275.65 183.02 275.01L194.13 268.6C194.694 268.287 195.323 268.111 195.967 268.085C196.611 268.059 197.253 268.184 197.84 268.45L209.48 275.17C210.48 275.72 210.31 276.68 209.22 277.31L198.1 283.72C197.54 284.037 196.912 284.216 196.269 284.244C195.626 284.272 194.986 284.147 194.4 283.88Z" fill="#2B303F"/>
<path d="M211.07 293.51L199.43 286.78C198.43 286.23 198.6 285.27 199.69 284.64L210.81 278.23C211.37 277.913 211.998 277.734 212.641 277.706C213.284 277.678 213.924 277.803 214.51 278.07L226.16 284.8C227.16 285.34 226.99 286.3 225.89 286.94L214.78 293.35C214.216 293.661 213.587 293.838 212.944 293.866C212.3 293.894 211.659 293.772 211.07 293.51Z" fill="#2B303F"/>
<path d="M227.37 302.91L215.72 296.19C214.77 295.64 214.89 294.68 215.99 294.05L227.1 287.63C227.664 287.317 228.293 287.141 228.937 287.115C229.581 287.089 230.223 287.214 230.81 287.48L242.46 294.2C243.41 294.75 243.29 295.71 242.19 296.34L231.08 302.76C230.516 303.073 229.887 303.249 229.243 303.275C228.599 303.301 227.957 303.176 227.37 302.91Z" fill="#2B303F"/>
<path d="M243.86 312.43L232.21 305.71C231.21 305.16 231.38 304.2 232.48 303.57L243.59 297.15C244.154 296.837 244.783 296.661 245.427 296.635C246.071 296.609 246.713 296.734 247.3 297L258.94 303.72C259.89 304.27 259.77 305.23 258.67 305.86L247.56 312.28C246.998 312.593 246.37 312.769 245.728 312.795C245.085 312.821 244.445 312.696 243.86 312.43Z" fill="#2B303F"/>
<path d="M260.34 322L248.7 315.28C247.75 314.73 247.86 313.77 248.96 313.14L260.07 306.72C260.634 306.407 261.263 306.231 261.907 306.205C262.551 306.179 263.193 306.304 263.78 306.57L275.43 313.29C276.38 313.84 276.26 314.8 275.16 315.43L264.05 321.85C263.486 322.163 262.857 322.339 262.213 322.365C261.568 322.392 260.927 322.266 260.34 322Z" fill="#2B303F"/>
<path d="M276.83 331.47L265.18 324.75C264.23 324.2 264.35 323.24 265.45 322.61L276.56 316.19C277.124 315.877 277.753 315.701 278.397 315.675C279.041 315.649 279.683 315.774 280.27 316.04L291.91 322.76C292.86 323.31 292.74 324.27 291.65 324.9L280.53 331.31C279.97 331.627 279.342 331.806 278.699 331.834C278.056 331.862 277.416 331.737 276.83 331.47Z" fill="#2B303F"/>
<path d="M293.31 341L281.67 334.27C280.72 333.72 280.84 332.77 281.93 332.13L293.05 325.72C293.61 325.403 294.238 325.224 294.881 325.196C295.524 325.168 296.164 325.293 296.75 325.56L308.4 332.29C309.4 332.84 309.23 333.79 308.13 334.43L297 340.83C296.441 341.145 295.816 341.325 295.175 341.354C294.534 341.384 293.895 341.262 293.31 341Z" fill="#2B303F"/>
<path d="M309.8 350.5L298.15 343.78C297.2 343.23 297.32 342.27 298.42 341.64L309.53 335.23C310.092 334.913 310.721 334.734 311.366 334.706C312.01 334.678 312.653 334.803 313.24 335.07L324.88 341.8C325.83 342.34 325.71 343.3 324.62 343.94L313.51 350.35C312.946 350.663 312.317 350.839 311.673 350.865C311.029 350.891 310.387 350.766 309.8 350.5Z" fill="#2B303F"/>
<path d="M326.28 360L314.64 353.28C313.69 352.73 313.81 351.77 314.9 351.14L326 344.74C326.562 344.427 327.19 344.251 327.832 344.225C328.475 344.199 329.115 344.324 329.7 344.59L341.35 351.31C342.3 351.86 342.18 352.82 341.08 353.45L330 359.87C329.433 360.181 328.802 360.355 328.156 360.378C327.509 360.4 326.867 360.271 326.28 360Z" fill="#2B303F"/>
<path d="M342.77 369.54L331.12 362.82C330.17 362.27 330.29 361.31 331.39 360.68L342.5 354.26C343.064 353.947 343.693 353.771 344.337 353.745C344.981 353.719 345.623 353.844 346.21 354.11L357.86 360.83C358.81 361.38 358.69 362.34 357.59 362.97L346.48 369.39C345.916 369.703 345.287 369.879 344.643 369.905C343.999 369.931 343.357 369.806 342.77 369.54Z" fill="#2B303F"/>
<path d="M359.26 379.06L347.61 372.34C346.66 371.79 346.78 370.83 347.88 370.2L359 363.78C359.564 363.467 360.193 363.291 360.837 363.265C361.481 363.239 362.123 363.364 362.71 363.63L374.35 370.35C375.35 370.9 375.18 371.86 374.08 372.49L363 378.91C362.433 379.229 361.798 379.409 361.148 379.436C360.498 379.462 359.851 379.333 359.26 379.06Z" fill="#2B303F"/>
<path d="M375.74 388.58L364.1 381.85C363.1 381.3 363.26 380.35 364.36 379.71L375.47 373.3C376.033 372.985 376.662 372.807 377.306 372.779C377.95 372.752 378.592 372.875 379.18 373.14L390.83 379.87C391.78 380.42 391.66 381.37 390.56 382.01L379.45 388.42C378.888 388.737 378.259 388.916 377.614 388.944C376.97 388.972 376.327 388.847 375.74 388.58Z" fill="#2B303F"/>
<path d="M400.17 402.68L380.58 391.37C379.63 390.82 379.75 389.86 380.85 389.23L392 382.82C392.562 382.503 393.191 382.324 393.836 382.296C394.481 382.268 395.123 382.393 395.71 382.66L415.25 394C416.2 394.55 416.08 395.51 414.99 396.14L403.87 402.56C403.306 402.868 402.677 403.039 402.034 403.06C401.392 403.081 400.753 402.951 400.17 402.68Z" fill="#2B303F"/>
<path d="M186.39 297.7L174.74 291C173.74 290.45 173.91 289.49 175.01 288.86L186.12 282.44C186.684 282.127 187.313 281.951 187.957 281.925C188.601 281.899 189.243 282.024 189.83 282.29L201.47 289C202.42 289.55 202.3 290.51 201.21 291.14L190.09 297.56C189.527 297.871 188.899 298.046 188.257 298.07C187.614 298.095 186.975 297.968 186.39 297.7Z" fill="#2B303F"/>
<path d="M202.9 307.24L191.26 300.52C190.31 299.97 190.43 299.01 191.52 298.38L202.64 292C203.202 291.687 203.83 291.511 204.472 291.485C205.115 291.459 205.755 291.584 206.34 291.85L218 298.53C218.95 299.08 218.83 300.04 217.73 300.67L206.62 307.09C206.055 307.404 205.424 307.582 204.778 307.608C204.132 307.634 203.489 307.508 202.9 307.24Z" fill="#2B303F"/>
<path d="M219.42 316.77L207.77 310.05C206.77 309.5 206.94 308.54 208.04 307.91L219.15 301.49C219.714 301.177 220.343 301.001 220.987 300.975C221.631 300.949 222.273 301.074 222.86 301.34L234.5 308.06C235.45 308.61 235.33 309.57 234.24 310.2L223.12 316.62C222.558 316.933 221.93 317.109 221.288 317.135C220.645 317.161 220.005 317.036 219.42 316.77Z" fill="#2B303F"/>
<path d="M235.93 326.31L224.28 319.58C223.33 319.04 223.45 318.08 224.55 317.44L235.66 311C236.223 310.686 236.852 310.507 237.496 310.48C238.14 310.452 238.782 310.575 239.37 310.84L251 317.6C251.95 318.15 251.83 319.1 250.73 319.74L239.62 326.15C239.06 326.463 238.435 326.641 237.794 326.669C237.153 326.697 236.515 326.574 235.93 326.31Z" fill="#2B303F"/>
<path d="M252.31 335.77L240.67 329C239.72 328.45 239.84 327.5 240.93 326.86L252.05 320.45C252.61 320.133 253.238 319.954 253.881 319.926C254.524 319.898 255.164 320.023 255.75 320.29L267.4 327.02C268.4 327.56 268.23 328.52 267.13 329.16L256 335.61C255.44 335.921 254.814 336.098 254.174 336.125C253.533 336.153 252.895 336.032 252.31 335.77Z" fill="#2B303F"/>
<path d="M268.83 345.3L257.18 338.58C256.23 338.03 256.35 337.07 257.45 336.44L268.56 330C269.124 329.687 269.753 329.511 270.397 329.485C271.041 329.459 271.683 329.584 272.27 329.85L283.91 336.57C284.86 337.12 284.74 338.08 283.65 338.71L272.53 345.13C271.97 345.446 271.343 345.626 270.7 345.655C270.058 345.685 269.417 345.563 268.83 345.3Z" fill="#2B303F"/>
<path d="M285.34 354.83L273.69 348.11C272.74 347.56 272.86 346.6 273.96 345.97L285.07 339.56C285.632 339.243 286.261 339.064 286.906 339.036C287.551 339.008 288.193 339.133 288.78 339.4L300.43 346.13C301.38 346.67 301.26 347.63 300.16 348.27L289.05 354.68C288.486 354.993 287.857 355.169 287.213 355.195C286.569 355.222 285.927 355.096 285.34 354.83Z" fill="#2B303F"/>
<path d="M301.85 364.37L290.21 357.65C289.26 357.1 289.38 356.14 290.48 355.51L301.59 349.09C302.152 348.777 302.78 348.601 303.422 348.575C304.065 348.549 304.705 348.674 305.29 348.94L316.94 355.66C317.89 356.21 317.77 357.17 316.67 357.8L305.56 364.22C304.996 364.533 304.367 364.709 303.723 364.735C303.079 364.761 302.437 364.636 301.85 364.37Z" fill="#2B303F"/>
<path d="M318.37 373.9L306.72 367.18C305.72 366.63 305.89 365.67 306.99 365.04L318.1 358.62C318.664 358.307 319.293 358.131 319.937 358.105C320.581 358.079 321.223 358.204 321.81 358.47L333.45 365.19C334.4 365.74 334.29 366.7 333.19 367.33L322.08 373.75C321.516 374.063 320.887 374.239 320.243 374.265C319.599 374.292 318.957 374.166 318.37 373.9Z" fill="#2B303F"/>
<path d="M334.88 383.44L323.24 376.71C322.29 376.17 322.41 375.21 323.5 374.57L334.62 368.16C335.182 367.848 335.809 367.671 336.451 367.643C337.093 367.615 337.733 367.738 338.32 368L350 374.73C350.95 375.28 350.83 376.24 349.73 376.87L338.62 383.28C338.054 383.602 337.42 383.784 336.769 383.812C336.119 383.84 335.471 383.712 334.88 383.44Z" fill="#2B303F"/>
<path d="M351.4 393L339.75 386.28C338.8 385.73 338.92 384.77 340.02 384.14L351.13 377.72C351.694 377.407 352.323 377.231 352.967 377.205C353.612 377.178 354.253 377.304 354.84 377.57L366.48 384.29C367.43 384.84 367.31 385.8 366.22 386.43L355.1 392.85C354.538 393.163 353.911 393.339 353.268 393.365C352.625 393.391 351.986 393.266 351.4 393Z" fill="#2B303F"/>
<path d="M367.91 402.51L356.27 395.78C355.32 395.23 355.43 394.28 356.53 393.64L367.64 387.23C368.203 386.916 368.832 386.737 369.476 386.71C370.12 386.682 370.762 386.805 371.35 387.07L383 393.8C383.95 394.35 383.83 395.3 382.73 395.94L371.62 402.35C371.058 402.667 370.429 402.846 369.784 402.874C369.139 402.902 368.497 402.777 367.91 402.51Z" fill="#2B303F"/>
<path d="M169.87 288.17L150.29 276.86C149.34 276.31 149.46 275.36 150.55 274.72L161.67 268.31C162.23 267.993 162.858 267.814 163.501 267.786C164.144 267.758 164.784 267.883 165.37 268.15L185 279.46C185.95 280.01 185.83 280.97 184.73 281.6L173.58 288C173.018 288.316 172.39 288.496 171.745 288.526C171.101 288.555 170.459 288.433 169.87 288.17Z" fill="#2B303F"/>
<path d="M399.37 403.29L387.73 396.57C387.194 396.296 386.602 396.153 386 396.153C385.398 396.153 384.806 396.296 384.27 396.57L372.53 403.35C371.53 403.9 371.53 404.79 372.53 405.35L373.46 405.89C374.34 406.39 374.33 407.22 373.46 407.73L361 414.89C360 415.45 360 416.34 361 416.89L368.41 421.17C368.945 421.441 369.536 421.583 370.135 421.583C370.734 421.583 371.325 421.441 371.86 421.17L383.48 414.47L385.88 413.08L387.61 412.08L389.35 411.08L399.35 405.31C400.32 404.73 400.32 403.84 399.37 403.29Z" fill="#2B303F"/>
<path d="M114.06 311.3L102.42 304.58C101.42 304.03 101.59 303.07 102.68 302.44L113.8 296C114.362 295.687 114.99 295.511 115.632 295.485C116.275 295.459 116.915 295.584 117.5 295.85L129.15 302.57C130.1 303.12 129.98 304.08 128.88 304.71L117.77 311.13C117.208 311.446 116.579 311.626 115.935 311.656C115.291 311.685 114.649 311.563 114.06 311.3Z" fill="#2B303F"/>
<path d="M130.5 320.79L118.86 314.07C117.86 313.52 118.03 312.56 119.12 311.93L130.24 305.51C130.802 305.197 131.43 305.021 132.072 304.995C132.715 304.969 133.355 305.094 133.94 305.36L145.59 312.08C146.54 312.63 146.42 313.59 145.32 314.22L134.21 320.64C133.646 320.953 133.017 321.129 132.373 321.155C131.729 321.181 131.087 321.056 130.5 320.79Z" fill="#2B303F"/>
<path d="M146.94 330.28L135.3 323.56C134.3 323.01 134.46 322.05 135.56 321.42L146.67 315C147.234 314.687 147.863 314.511 148.507 314.485C149.151 314.459 149.793 314.584 150.38 314.85L162 321.57C162.95 322.12 162.83 323.08 161.73 323.71L150.62 330.13C150.06 330.438 149.436 330.612 148.798 330.638C148.159 330.664 147.523 330.541 146.94 330.28Z" fill="#2B303F"/>
<path d="M286.94 411.11L275.29 404.38C274.29 403.84 274.46 402.88 275.56 402.24L286.67 395.83C287.233 395.516 287.862 395.337 288.506 395.309C289.15 395.282 289.792 395.405 290.38 395.67L302 402.4C303 402.95 302.83 403.9 301.73 404.54L290.64 411C290.076 411.309 289.446 411.48 288.803 411.499C288.16 411.518 287.522 411.385 286.94 411.11Z" fill="#2B303F"/>
<path d="M303.37 420.6L291.73 413.88C290.73 413.33 290.9 412.37 291.99 411.74L303.11 405.32C303.672 405.007 304.3 404.831 304.942 404.805C305.585 404.779 306.225 404.904 306.81 405.17L318.46 411.89C319.46 412.44 319.29 413.4 318.19 414.03L307.08 420.45C306.516 420.763 305.887 420.939 305.243 420.965C304.599 420.991 303.957 420.866 303.37 420.6Z" fill="#2B303F"/>
<path d="M319.81 430.09L308.17 423.37C307.22 422.82 307.34 421.86 308.43 421.23L319.55 414.81C320.112 414.497 320.739 414.321 321.382 414.295C322.025 414.269 322.664 414.394 323.25 414.66L334.9 421.38C335.9 421.93 335.73 422.89 334.63 423.52L323.52 429.94C322.956 430.253 322.327 430.429 321.683 430.455C321.039 430.481 320.397 430.356 319.81 430.09Z" fill="#2B303F"/>
<path d="M336.25 439.58L324.61 432.86C323.66 432.31 323.78 431.35 324.87 430.72L336 424.3C336.562 423.987 337.19 423.811 337.832 423.785C338.475 423.759 339.115 423.884 339.7 424.15L351.35 430.87C352.35 431.42 352.18 432.38 351.08 433.01L340 439.43C339.431 439.749 338.795 439.929 338.143 439.956C337.491 439.982 336.843 439.853 336.25 439.58Z" fill="#2B303F"/>
<path d="M167.61 342.22L151.73 333.05C150.78 332.5 150.9 331.54 152 330.91L163.11 324.49C163.674 324.177 164.303 324.001 164.947 323.975C165.591 323.949 166.233 324.074 166.82 324.34L182.7 333.51C183.7 334.06 183.53 335.01 182.43 335.65L171.32 342.06C170.758 342.377 170.129 342.556 169.484 342.584C168.84 342.612 168.197 342.487 167.61 342.22Z" fill="#2B303F"/>
<path d="M270.5 401.62L254.62 392.45C253.62 391.9 253.79 390.94 254.88 390.31L266 383.89C266.562 383.577 267.19 383.401 267.832 383.375C268.475 383.349 269.115 383.474 269.7 383.74L285.58 392.91C286.53 393.46 286.41 394.41 285.32 395.05L274.2 401.46C273.64 401.777 273.012 401.956 272.369 401.984C271.726 402.012 271.086 401.887 270.5 401.62Z" fill="#2B303F"/>
<path d="M249.82 389.68L172.41 345C171.46 344.45 171.58 343.49 172.67 342.86L183.79 336.44C184.352 336.127 184.979 335.951 185.622 335.925C186.265 335.899 186.904 336.024 187.49 336.29L264.91 381C265.86 381.55 265.74 382.51 264.64 383.14L253.53 389.56C252.964 389.868 252.333 390.039 251.689 390.06C251.045 390.081 250.405 389.951 249.82 389.68Z" fill="#2B303F"/>
<path d="M174.89 309.52L163.25 302.8C162.3 302.25 162.42 301.29 163.52 300.66L174.63 294.24C175.192 293.927 175.819 293.751 176.462 293.725C177.105 293.699 177.744 293.824 178.33 294.09L190 300.81C191 301.36 190.83 302.32 189.73 302.95L178.62 309.37C178.054 309.686 177.421 309.864 176.773 309.89C176.125 309.917 175.48 309.79 174.89 309.52Z" fill="#2B303F"/>
<path d="M191.36 319L179.72 312.27C178.77 311.72 178.89 310.77 179.98 310.13L191.1 303.72C191.661 303.406 192.288 303.227 192.931 303.2C193.574 303.172 194.214 303.295 194.8 303.56L206.45 310.29C207.45 310.84 207.28 311.79 206.18 312.43L195.07 318.84C194.508 319.157 193.879 319.336 193.234 319.364C192.589 319.392 191.947 319.267 191.36 319Z" fill="#2B303F"/>
<path d="M207.83 328.53L196.18 321.81C195.18 321.26 195.35 320.3 196.45 319.67L207.56 313.25C208.124 312.937 208.753 312.761 209.397 312.735C210.041 312.709 210.683 312.834 211.27 313.1L222.91 319.82C223.91 320.37 223.75 321.33 222.65 321.96L211.54 328.38C210.976 328.693 210.347 328.869 209.703 328.895C209.059 328.922 208.417 328.796 207.83 328.53Z" fill="#2B303F"/>
<path d="M224.3 338L212.65 331.28C211.65 330.73 211.82 329.77 212.92 329.14L224 322.76C224.564 322.447 225.193 322.271 225.837 322.245C226.481 322.219 227.123 322.344 227.71 322.61L239.35 329.33C240.35 329.88 240.18 330.84 239.09 331.47L228 337.89C227.435 338.196 226.806 338.366 226.163 338.385C225.52 338.404 224.882 338.272 224.3 338Z" fill="#2B303F"/>
<path d="M240.76 347.55L229.12 340.83C228.12 340.28 228.29 339.32 229.38 338.69L240.5 332.27C241.062 331.957 241.69 331.781 242.332 331.755C242.975 331.729 243.615 331.854 244.2 332.12L255.85 338.84C256.85 339.39 256.68 340.35 255.58 340.98L244.47 347.4C243.906 347.713 243.277 347.889 242.633 347.915C241.989 347.941 241.347 347.816 240.76 347.55Z" fill="#2B303F"/>
<path d="M257.23 357.06L245.59 350.33C244.59 349.78 244.75 348.83 245.85 348.19L257 341.78C257.562 341.463 258.191 341.284 258.836 341.256C259.481 341.228 260.123 341.353 260.71 341.62L272.36 348.35C273.31 348.9 273.19 349.85 272.09 350.49L260.98 356.9C260.413 357.223 259.777 357.406 259.124 357.434C258.472 357.462 257.823 357.334 257.23 357.06Z" fill="#2B303F"/>
<path d="M273.7 366.56L262.05 359.84C261.1 359.29 261.22 358.33 262.32 357.7L273.43 351.28C273.994 350.967 274.623 350.791 275.267 350.765C275.911 350.739 276.553 350.864 277.14 351.13L288.78 357.85C289.78 358.4 289.61 359.36 288.52 359.99L277.4 366.41C276.838 366.723 276.21 366.899 275.568 366.925C274.925 366.951 274.285 366.826 273.7 366.56Z" fill="#2B303F"/>
<path d="M290.17 376.07L278.52 369.35C277.57 368.8 277.69 367.84 278.79 367.21L289.9 360.79C290.464 360.477 291.093 360.301 291.737 360.275C292.381 360.249 293.023 360.374 293.61 360.64L305.25 367.36C306.2 367.91 306.08 368.87 304.98 369.5L293.87 375.92C293.308 376.233 292.68 376.409 292.038 376.435C291.395 376.461 290.755 376.336 290.17 376.07Z" fill="#2B303F"/>
<path d="M306.63 385.58L295 378.86C294.05 378.31 294.17 377.35 295.26 376.72L306.38 370.3C306.942 369.987 307.57 369.811 308.212 369.785C308.855 369.759 309.495 369.884 310.08 370.15L321.73 376.87C322.68 377.42 322.56 378.38 321.46 379.01L310.35 385.43C309.785 385.744 309.154 385.922 308.508 385.948C307.862 385.974 307.219 385.848 306.63 385.58Z" fill="#2B303F"/>
<path d="M323.1 395.09L311.45 388.36C310.5 387.81 310.62 386.86 311.72 386.22L322.83 379.81C323.392 379.493 324.021 379.314 324.666 379.286C325.311 379.258 325.953 379.383 326.54 379.65L338.19 386.38C339.14 386.92 339.02 387.88 337.92 388.52L326.81 394.93C326.247 395.244 325.618 395.423 324.974 395.451C324.33 395.478 323.688 395.355 323.1 395.09Z" fill="#2B303F"/>
<path d="M339.57 404.59L327.92 397.87C326.97 397.32 327.09 396.36 328.19 395.73L339.3 389.31C339.864 388.997 340.493 388.821 341.137 388.795C341.781 388.769 342.423 388.894 343.01 389.16L354.65 395.88C355.65 396.43 355.48 397.39 354.39 398.02L343.27 404.44C342.708 404.753 342.08 404.929 341.438 404.955C340.795 404.981 340.155 404.856 339.57 404.59Z" fill="#2B303F"/>
<path d="M356 414.1L344.36 407.38C343.41 406.83 343.53 405.87 344.63 405.24L355.74 398.82C356.302 398.507 356.929 398.331 357.572 398.305C358.215 398.279 358.854 398.404 359.44 398.67L371.09 405.39C372.04 405.94 371.92 406.9 370.82 407.53L359.74 414C359.168 414.31 358.532 414.48 357.882 414.498C357.232 414.515 356.587 414.379 356 414.1Z" fill="#2B303F"/>
<path d="M158.43 300L134.34 286.1C133.34 285.55 133.51 284.59 134.61 283.96L145.72 277.54C146.284 277.227 146.913 277.051 147.557 277.025C148.201 276.999 148.843 277.124 149.43 277.39L173.51 291.29C174.51 291.84 174.34 292.8 173.25 293.43L162.13 299.85C161.568 300.163 160.94 300.339 160.298 300.365C159.655 300.391 159.015 300.266 158.43 300Z" fill="#2B303F"/>
<path d="M150.74 314L139.1 307.3C138.15 306.75 138.26 305.8 139.36 305.16L150.47 298.75C151.032 298.433 151.661 298.254 152.306 298.226C152.951 298.198 153.593 298.323 154.18 298.59L165.83 305.32C166.78 305.86 166.66 306.82 165.56 307.46L154.45 313.87C153.885 314.18 153.255 314.353 152.61 314.375C151.966 314.398 151.326 314.269 150.74 314Z" fill="#2B303F"/>
<path d="M167.21 323.53L155.56 316.81C154.61 316.26 154.73 315.3 155.83 314.67L166.94 308.25C167.504 307.937 168.133 307.761 168.777 307.735C169.421 307.709 170.063 307.834 170.65 308.1L182.29 314.82C183.29 315.37 183.12 316.33 182.03 316.96L170.91 323.38C170.348 323.693 169.72 323.869 169.078 323.895C168.435 323.921 167.795 323.796 167.21 323.53Z" fill="#2B303F"/>
<path d="M183.67 333L172 326.31C171 325.76 171.17 324.81 172.27 324.17L183.38 317.76C183.943 317.446 184.572 317.267 185.216 317.239C185.86 317.212 186.502 317.335 187.09 317.6L198.74 324.33C199.74 324.88 199.57 325.83 198.47 326.47L187.36 332.88C186.797 333.187 186.17 333.358 185.529 333.379C184.888 333.4 184.252 333.27 183.67 333Z" fill="#2B303F"/>
<path d="M200.13 342.54L188.49 335.82C187.49 335.27 187.66 334.31 188.76 333.68L199.87 327.26C200.432 326.947 201.059 326.771 201.702 326.745C202.345 326.719 202.985 326.844 203.57 327.11L215.22 333.83C216.17 334.38 216.05 335.34 214.95 335.97L203.84 342.39C203.276 342.703 202.647 342.879 202.003 342.905C201.359 342.931 200.717 342.806 200.13 342.54Z" fill="#2B303F"/>
<path d="M216.6 352.05L205 345.33C204.05 344.78 204.17 343.82 205.27 343.19L216.38 336.77C216.944 336.457 217.573 336.281 218.217 336.255C218.861 336.229 219.503 336.354 220.09 336.62L231.73 343.34C232.68 343.89 232.57 344.85 231.47 345.48L220.36 351.89C219.792 352.215 219.154 352.399 218.499 352.427C217.845 352.455 217.194 352.325 216.6 352.05Z" fill="#2B303F"/>
<path d="M233.06 361.55L221.42 354.83C220.47 354.28 220.59 353.32 221.68 352.69L232.8 346.27C233.362 345.957 233.989 345.781 234.632 345.755C235.275 345.729 235.914 345.854 236.5 346.12L248.15 352.84C249.1 353.39 248.98 354.35 247.88 354.98L236.77 361.4C236.206 361.713 235.577 361.889 234.933 361.915C234.289 361.941 233.647 361.816 233.06 361.55Z" fill="#2B303F"/>
<path d="M249.53 371.06L237.88 364.34C236.93 363.79 237.05 362.83 238.15 362.2L249.26 355.78C249.824 355.467 250.453 355.291 251.097 355.265C251.741 355.239 252.383 355.364 252.97 355.63L264.61 362.35C265.56 362.9 265.44 363.86 264.35 364.49L253.24 370.91C252.676 371.223 252.047 371.399 251.403 371.425C250.759 371.452 250.117 371.326 249.53 371.06Z" fill="#2B303F"/>
<path d="M266 380.57L254.36 373.84C253.41 373.29 253.53 372.34 254.62 371.7L265.74 365.29C266.3 364.973 266.928 364.794 267.571 364.766C268.214 364.738 268.854 364.863 269.44 365.13L281.09 371.86C282.04 372.4 281.92 373.36 280.82 374L269.71 380.41C269.147 380.724 268.518 380.903 267.874 380.931C267.23 380.958 266.588 380.835 266 380.57Z" fill="#2B303F"/>
<path d="M282.46 390.07L270.81 383.35C269.86 382.8 269.98 381.84 271.08 381.21L282.19 374.79C282.754 374.477 283.383 374.301 284.027 374.275C284.671 374.249 285.313 374.374 285.9 374.64L297.54 381.36C298.49 381.91 298.37 382.87 297.28 383.5L286.16 389.92C285.598 390.233 284.97 390.409 284.328 390.435C283.685 390.461 283.045 390.336 282.46 390.07Z" fill="#2B303F"/>
<path d="M298.92 399.58L287.28 392.85C286.33 392.31 286.45 391.35 287.54 390.71L298.66 384.3C299.221 383.986 299.848 383.807 300.491 383.78C301.134 383.752 301.774 383.875 302.36 384.14L314 390.87C314.95 391.42 314.83 392.37 313.73 393.01L302.62 399.42C302.059 399.735 301.432 399.914 300.789 399.942C300.146 399.969 299.506 399.845 298.92 399.58Z" fill="#2B303F"/>
<path d="M315.39 409.08L303.74 402.36C302.79 401.81 302.91 400.85 304.01 400.22L315.12 393.8C315.684 393.487 316.313 393.311 316.957 393.285C317.601 393.259 318.243 393.384 318.83 393.65L330.47 400.37C331.42 400.92 331.3 401.88 330.21 402.51L319.09 408.93C318.528 409.243 317.901 409.419 317.258 409.445C316.615 409.471 315.976 409.346 315.39 409.08Z" fill="#2B303F"/>
<path d="M352.23 430.36L320.23 411.87C319.28 411.32 319.39 410.36 320.49 409.73L331.6 403.31C332.164 402.997 332.793 402.821 333.437 402.795C334.081 402.769 334.723 402.894 335.31 403.16L367.31 421.65C368.26 422.19 368.14 423.15 367.04 423.79L355.93 430.2C355.368 430.513 354.741 430.69 354.099 430.718C353.457 430.746 352.817 430.623 352.23 430.36Z" fill="#2B303F"/>
<path d="M134.28 304.52L118.4 295.35C117.4 294.8 117.57 293.84 118.66 293.21L129.78 286.8C130.34 286.483 130.968 286.304 131.611 286.276C132.254 286.248 132.894 286.373 133.48 286.64L149.36 295.81C150.31 296.36 150.19 297.32 149.1 297.95L138 304.37C137.435 304.686 136.804 304.864 136.158 304.89C135.512 304.916 134.868 304.79 134.28 304.52Z" fill="#2B303F"/>
<path d="M416.71 393.13L182.87 258.13C181.87 257.59 182.04 256.63 183.14 255.99L188.7 252.79C189.261 252.476 189.888 252.297 190.531 252.27C191.174 252.242 191.814 252.365 192.4 252.63L426.24 387.63C427.19 388.18 427.07 389.13 425.97 389.77L420.42 393C419.855 393.31 419.225 393.483 418.58 393.505C417.936 393.528 417.296 393.399 416.71 393.13Z" fill="#2B303F"/>
<path d="M271.85 408.48C271.516 409.207 270.945 409.8 270.23 410.16L205.89 447.31C204.807 447.912 203.598 448.252 202.359 448.302C201.121 448.353 199.888 448.112 198.76 447.6L88.76 384.11C88.2899 383.866 87.9111 383.477 87.68 383C87.28 382 87.84 380.89 89.3 380.05L153.65 342.89C154.733 342.288 155.942 341.948 157.181 341.898C158.419 341.847 159.652 342.088 160.78 342.6L270.78 406.09C271.225 406.283 271.581 406.635 271.779 407.077C271.977 407.52 272.002 408.02 271.85 408.48Z" fill="#B1B4C4"/>
<path d="M271.85 408.48C271.516 409.207 270.945 409.8 270.23 410.16L205.89 447.31C204.807 447.912 203.598 448.252 202.359 448.302C201.121 448.353 199.888 448.112 198.76 447.6L88.76 384.11C88.2899 383.866 87.9111 383.477 87.68 383C88.0209 382.28 88.5905 381.693 89.3 381.33L153.65 344.18C154.733 343.577 155.941 343.236 157.179 343.184C158.417 343.132 159.651 343.37 160.78 343.88L270.78 407.38C271.247 407.62 271.623 408.007 271.85 408.48Z" fill="#C3C6D1"/>
<path d="M434.51 382.89L200.67 247.89C200.155 247.509 199.736 247.014 199.446 246.442C199.156 245.871 199.003 245.24 199 244.6V241.85C199 240.58 199.77 240 200.72 240.55L434.56 375.55C435.084 375.923 435.513 376.415 435.811 376.985C436.11 377.555 436.271 378.187 436.28 378.83V381.58C436.23 382.86 435.46 383.44 434.51 382.89Z" fill="#2B303F"/>
<path d="M236 234.56L212.9 221.25C210.01 219.58 207.66 215.09 207.66 211.25V186.48C207.66 182.62 210.01 180.85 212.9 182.48L236 195.83C238.9 197.5 241.24 201.99 241.24 205.83V230.6C241.2 234.46 238.86 236.23 236 234.56Z" fill="#E9EAF2"/>
<path d="M235.91 177.83L212.85 164.52C209.96 162.85 207.61 156.02 207.61 152.68V123.76C207.61 119.9 209.96 118.13 212.85 119.76L235.91 133.07C238.81 134.74 241.15 139.23 241.15 143.07V171.99C241.15 175.39 238.81 179.5 235.91 177.83Z" fill="#E9EAF2"/>
<path d="M224.51 158.51C219.82 155.8 216 149.18 216 143.76C216 138.34 219.82 136.13 224.51 138.84C229.2 141.55 233.03 148.17 233.03 153.59C233.03 159.01 229.21 161.22 224.51 158.51ZM224.51 141.36C221.02 139.36 218.18 140.99 218.18 145.02C218.294 147.222 218.927 149.367 220.027 151.278C221.127 153.19 222.663 154.815 224.51 156.02C228.01 158.02 230.85 156.4 230.85 152.37C230.736 150.165 230.103 148.018 229.001 146.104C227.899 144.191 226.36 142.565 224.51 141.36Z" fill="#8C50FF"/>
<path d="M226.85 154.5L222.99 148.36V143.25L225.17 144.51V148.48L228.29 153.43L226.85 154.5Z" fill="#8C50FF"/>
<path d="M235.88 116.66L212.82 103.35C209.93 101.67 207.58 94.15 207.58 90.8V64.18C207.58 60.84 209.93 59.48 212.82 61.18L235.88 74.5C237.406 75.4925 238.676 76.8313 239.586 78.4074C240.497 79.9835 241.022 81.7524 241.12 83.57V110.2C241.12 113.51 238.78 118.33 235.88 116.66Z" fill="#E9EAF2"/>
<path d="M224.35 84.75C222.96 83.95 221.84 84.6 221.84 86.21C221.886 87.0815 222.138 87.9298 222.574 88.6858C223.01 89.4417 223.619 90.0839 224.35 90.56C225.74 91.36 226.87 90.71 226.87 89.11C226.82 88.2368 226.566 87.3874 226.129 86.6301C225.691 85.8729 225.082 85.2289 224.35 84.75ZM231.06 85.75L229.06 84.59C228.736 84.3689 228.502 84.039 228.4 83.66L227.88 81.55C227.771 81.1718 227.534 80.8431 227.21 80.62L221.51 77.33C221.23 77.17 220.94 77.24 220.85 77.5L220.33 79C220.304 79.0605 220.265 79.1144 220.215 79.1573C220.165 79.2002 220.106 79.231 220.042 79.2474C219.978 79.2639 219.911 79.2654 219.847 79.252C219.782 79.2386 219.722 79.2105 219.67 79.17L217.67 78.01C216.75 77.47 216 77.91 216 79.01V87.73C216.032 88.3104 216.199 88.8753 216.489 89.379C216.78 89.8827 217.184 90.3112 217.67 90.63L231.09 98.38C232.01 98.91 232.77 98.48 232.77 97.38V88.63C232.734 88.0447 232.56 87.4761 232.263 86.9705C231.966 86.4649 231.554 86.0365 231.06 85.72V85.75ZM224.35 92.53C223.132 91.7329 222.117 90.6605 221.39 89.3994C220.662 88.1383 220.241 86.7238 220.16 85.27C220.16 82.59 222.04 81.51 224.35 82.85C225.571 83.6441 226.587 84.7158 227.316 85.9775C228.044 87.2392 228.463 88.6552 228.54 90.11C228.54 92.75 226.67 93.84 224.35 92.5V92.53ZM230.47 88.7C230.302 88.5905 230.161 88.4429 230.061 88.2692C229.96 88.0955 229.901 87.9005 229.89 87.7C229.89 87.32 230.15 87.17 230.47 87.36C230.64 87.4684 230.782 87.6155 230.885 87.7892C230.987 87.963 231.047 88.1586 231.06 88.36C231.06 88.71 230.8 88.86 230.47 88.67V88.7Z" fill="#8C50FF"/>
<path d="M231.63 210.35C231.63 214.86 224.56 220.72 224.56 220.72C224.56 220.72 217.48 206.72 217.48 202.18C217.48 197.64 220.65 195.84 224.56 198.09C226.619 199.434 228.332 201.245 229.56 203.375C230.788 205.505 231.497 207.895 231.63 210.35Z" fill="#8C50FF"/>
<path d="M227.83 211.622C229.638 210.578 229.639 207.196 227.833 204.068C226.027 200.94 223.098 199.25 221.29 200.294C219.482 201.338 219.48 204.72 221.286 207.848C223.092 210.976 226.022 212.666 227.83 211.622Z" fill="#E9EAF2"/>
<path d="M399.13 271L259.52 190.39C257.16 189.04 255.26 185.39 255.26 182.26V88.43C255.26 85.3 257.16 83.86 259.52 85.22L399.13 165.82C401.48 167.18 403.38 170.82 403.38 173.96V267.78C403.38 270.92 401.48 272.36 399.13 271Z" fill="#E9EAF2"/>
<path d="M383 202.79L274.79 140.32C272.17 138.8 270.04 134.74 270.04 131.25V124.18C270.04 120.68 272.17 119.08 274.79 120.59L383 183.06C385.62 184.57 387.74 188.63 387.74 192.13V199.2C387.74 202.7 385.62 204.3 383 202.79Z" fill="white"/>
<path d="M324.15 200.6L274.79 172.1C272.17 170.59 270.04 166.53 270.04 163.03V156C270.04 152.5 272.17 150.9 274.79 152.41L324.15 180.91C326.77 182.42 328.89 186.48 328.89 189.98V197C328.89 200.5 326.77 202.11 324.15 200.6Z" fill="#8C50FF"/>
<path d="M427.86 291.64C427.86 291.64 375.23 303.24 332.68 255.98C290.13 208.72 255.42 214.78 255.42 214.78V244.28L427.86 343.83V291.64Z" fill="url(#paint1_linear)"/>
<path d="M427.86 291.64C427.86 291.64 375.23 303.24 332.68 255.98C290.13 208.72 255.42 214.78 255.42 214.78" stroke="#CCCEDD" stroke-width="1.06" stroke-miterlimit="10"/>
<path d="M255.19 44.4C253.651 47.1516 251.78 49.704 249.62 52C249.02 52.7 244.39 50.93 245.36 50.43C246.33 49.93 249.36 45.71 250.88 42.89C252.152 39.5233 253.233 36.0879 254.12 32.6C255.07 29.15 255.89 24.09 256.59 21.71C256.769 20.8309 257.198 20.0224 257.826 19.3818C258.454 18.7413 259.254 18.2961 260.13 18.1C261.8 17.71 262.88 18.17 262.57 20.19C262 23.71 259.27 37.45 255.19 44.4Z" fill="#FFCEA9"/>
<path d="M257.84 98.25C256.41 99.42 254.29 98.35 254.18 98.46C252.495 100.021 250.729 101.493 248.89 102.87C247.99 103.57 246.6 104.51 246.89 105.87C247.34 108.28 251.21 107.54 252.67 106.8C254.13 106.06 255.33 104.8 256.67 103.98C257.67 103.36 258.67 103.05 258.78 101.8C258.87 101.05 258.1 98.22 257.84 98.25Z" fill="#38226D"/>
<path d="M258.76 101.3C258.57 102.49 257.61 102.82 256.63 103.43C255.23 104.3 253.99 105.56 252.53 106.3C251.07 107.04 247.82 107.66 246.87 105.93C247.38 108.26 251.19 107.53 252.63 106.8C254.07 106.07 255.29 104.8 256.63 103.98C257.63 103.36 258.63 103.05 258.74 101.8C258.76 101.634 258.767 101.467 258.76 101.3Z" fill="#9C73FF"/>
<path d="M243.28 89.86C241.85 91.03 239.34 89.76 239.23 89.86C237.74 91.3769 236.161 92.8028 234.5 94.13C233.6 94.84 232.21 95.78 232.5 97.13C232.95 99.55 236.82 98.81 238.29 98.07C239.76 97.33 240.94 96.07 242.29 95.24C243.29 94.63 244.29 94.31 244.4 93.07C244.48 92.32 243.54 89.83 243.28 89.86Z" fill="#38226D"/>
<path d="M244.35 92.74C244.16 93.93 243.2 94.26 242.22 94.87C240.82 95.74 239.58 97 238.12 97.74C236.66 98.48 233.4 99.1 232.46 97.37C232.97 99.7 236.77 98.97 238.22 98.24C239.67 97.51 240.87 96.24 242.22 95.41C243.22 94.8 244.22 94.49 244.33 93.24C244.35 93.0741 244.357 92.9069 244.35 92.74Z" fill="#9C73FF"/>
<path d="M277 52.24C278.59 62.18 274.18 65.89 268.44 68C264.32 69.52 258.44 71.86 258.44 71.86C258.44 71.86 258.52 74.04 258.56 78.93C258.56 83.24 258.04 98.93 258.04 98.93C257.359 99.28 256.605 99.4626 255.84 99.4626C255.075 99.4626 254.321 99.28 253.64 98.93C253.64 98.93 251.33 86.88 250.84 81.44C250.17 74.07 249.04 69.24 249.42 67.65C249.75 66.25 257.81 62.29 260.37 60.17L243.48 65.83C243.816 67.6607 243.98 69.5188 243.97 71.38C243.82 77.23 243.49 89.9 243.49 89.9C243.49 89.9 241.18 91.57 239.2 89.9C239.2 89.9 234.95 64.83 235.47 61.51C235.96 58.36 250.84 51.92 253.47 49.7C253.927 49.3286 254.457 49.0575 255.025 48.9041C255.594 48.7508 256.188 48.7187 256.77 48.81L277 52.24Z" fill="#8C50FF"/>
<path d="M236.54 56.38L247.89 49.83C247.988 49.7709 248.1 49.7397 248.215 49.7397C248.329 49.7397 248.442 49.7709 248.54 49.83L268.44 61.32L256.77 68.06L236.54 56.38Z" fill="#F4F4F4"/>
<path d="M257.3 65.65L258.17 66.15C258.24 66.15 258.23 66.26 258.17 66.31L257.34 66.79C257.298 66.8097 257.252 66.8199 257.205 66.8199C257.158 66.8199 257.112 66.8097 257.07 66.79L256.2 66.29C256.13 66.29 256.14 66.18 256.2 66.13L257.03 65.65C257.072 65.6303 257.118 65.6201 257.165 65.6201C257.212 65.6201 257.258 65.6303 257.3 65.65Z" fill="#3A2C6D"/>
<path d="M256.08 65L256.94 65.49C257.01 65.49 257 65.61 256.94 65.65L256.12 66.13C256.077 66.152 256.029 66.1634 255.98 66.1634C255.931 66.1634 255.883 66.152 255.84 66.13L254.98 65.63C254.91 65.63 254.92 65.52 254.98 65.47L255.8 65C255.843 64.9754 255.891 64.9625 255.94 64.9625C255.989 64.9625 256.037 64.9754 256.08 65Z" fill="#3A2C6D"/>
<path d="M254.84 64.23L255.7 64.73C255.77 64.73 255.77 64.84 255.7 64.89L254.88 65.36C254.837 65.382 254.789 65.3934 254.74 65.3934C254.691 65.3934 254.643 65.382 254.6 65.36L253.74 64.86C253.67 64.86 253.68 64.75 253.74 64.7L254.56 64.22C254.604 64.1996 254.653 64.1898 254.701 64.1916C254.75 64.1933 254.797 64.2065 254.84 64.23Z" fill="#3A2C6D"/>
<path d="M253.63 63.53L254.49 64.03C254.56 64.03 254.56 64.14 254.49 64.19L253.67 64.67C253.626 64.6899 253.578 64.7002 253.53 64.7002C253.482 64.7002 253.434 64.6899 253.39 64.67L252.53 64.17C252.46 64.17 252.47 64.06 252.53 64.01L253.35 63.53C253.394 63.5101 253.442 63.4998 253.49 63.4998C253.538 63.4998 253.586 63.5101 253.63 63.53Z" fill="#3A2C6D"/>
<path d="M252.4 62.82L253.27 63.32C253.34 63.32 253.33 63.44 253.27 63.48L252.44 63.96C252.398 63.9819 252.352 63.9933 252.305 63.9933C252.258 63.9933 252.212 63.9819 252.17 63.96L251.3 63.46C251.23 63.46 251.24 63.35 251.3 63.3L252.13 62.83C252.171 62.8066 252.217 62.7934 252.264 62.7916C252.311 62.7899 252.357 62.7996 252.4 62.82Z" fill="#3A2C6D"/>
<path d="M251.18 62.12L252.05 62.62C252.12 62.62 252.11 62.73 252.05 62.78L251.22 63.25C251.178 63.2719 251.132 63.2833 251.085 63.2833C251.038 63.2833 250.992 63.2719 250.95 63.25L250.08 62.75C250.01 62.75 250.02 62.64 250.08 62.6L250.91 62.12C250.952 62.0981 250.998 62.0867 251.045 62.0867C251.092 62.0867 251.138 62.0981 251.18 62.12Z" fill="#3A2C6D"/>
<path d="M250 61.41L250.86 61.91C250.93 61.91 250.92 62.02 250.86 62.07L250.04 62.55C249.996 62.5699 249.948 62.5802 249.9 62.5802C249.852 62.5802 249.804 62.5699 249.76 62.55L248.9 62.05C248.83 62.05 248.83 61.94 248.9 61.89L249.72 61.41C249.764 61.3901 249.812 61.3799 249.86 61.3799C249.908 61.3799 249.956 61.3901 250 61.41Z" fill="#3A2C6D"/>
<path d="M248.73 60.7L249.6 61.2C249.67 61.2 249.66 61.32 249.6 61.36L248.77 61.84C248.728 61.8619 248.682 61.8734 248.635 61.8734C248.588 61.8734 248.542 61.8619 248.5 61.84L247.63 61.34C247.56 61.34 247.57 61.23 247.63 61.18L248.46 60.71C248.501 60.6866 248.547 60.6734 248.594 60.6716C248.641 60.6699 248.687 60.6796 248.73 60.7Z" fill="#3A2C6D"/>
<path d="M247.51 60L248.37 60.5C248.44 60.5 248.43 60.61 248.37 60.66L247.55 61.13C247.507 61.152 247.459 61.1634 247.41 61.1634C247.361 61.1634 247.313 61.152 247.27 61.13L246.41 60.63C246.34 60.63 246.35 60.52 246.41 60.48L247.23 60C247.273 59.978 247.321 59.9666 247.37 59.9666C247.419 59.9666 247.466 59.978 247.51 60Z" fill="#3A2C6D"/>
<path d="M246.28 59.29L247.15 59.79C247.22 59.79 247.21 59.9 247.15 59.95L246.32 60.43C246.278 60.4497 246.232 60.4599 246.185 60.4599C246.138 60.4599 246.092 60.4497 246.05 60.43L245.18 59.93C245.11 59.93 245.12 59.82 245.18 59.77L246.01 59.29C246.052 59.2681 246.098 59.2567 246.145 59.2567C246.192 59.2567 246.238 59.2681 246.28 59.29Z" fill="#3A2C6D"/>
<path d="M245.06 58.58L245.92 59.08C245.99 59.08 245.99 59.19 245.92 59.24L245.1 59.72C245.057 59.742 245.009 59.7534 244.96 59.7534C244.911 59.7534 244.863 59.742 244.82 59.72L243.96 59.22C243.89 59.22 243.9 59.11 243.96 59.06L244.78 58.59C244.823 58.5665 244.87 58.5533 244.919 58.5516C244.967 58.5498 245.016 58.5596 245.06 58.58Z" fill="#3A2C6D"/>
<path d="M243.84 57.88L244.7 58.38C244.77 58.38 244.76 58.49 244.7 58.54L243.87 59.01C243.828 59.0319 243.782 59.0433 243.735 59.0433C243.688 59.0433 243.642 59.0319 243.6 59.01L242.73 58.51C242.66 58.51 242.67 58.4 242.73 58.35L243.56 57.88C243.603 57.858 243.651 57.8466 243.7 57.8466C243.749 57.8466 243.797 57.858 243.84 57.88Z" fill="#3A2C6D"/>
<path d="M242.61 57.17L243.48 57.67C243.55 57.67 243.54 57.78 243.48 57.83L242.65 58.3C242.608 58.3219 242.562 58.3333 242.515 58.3333C242.468 58.3333 242.422 58.3219 242.38 58.3L241.51 57.8C241.44 57.8 241.45 57.68 241.51 57.64L242.34 57.16C242.382 57.1396 242.429 57.1299 242.476 57.1316C242.523 57.1334 242.569 57.1465 242.61 57.17Z" fill="#3A2C6D"/>
<path d="M240.8 56.12L242.25 56.96C242.32 56.96 242.31 57.07 242.25 57.12L241.43 57.6C241.386 57.6199 241.338 57.6302 241.29 57.6302C241.242 57.6302 241.194 57.6199 241.15 57.6L239.7 56.76C239.63 56.76 239.63 56.65 239.7 56.6L240.52 56.12C240.564 56.1001 240.612 56.0898 240.66 56.0898C240.708 56.0898 240.756 56.1001 240.8 56.12Z" fill="#3A2C6D"/>
<path d="M256.67 63.92L257.54 64.42C257.61 64.42 257.6 64.53 257.54 64.58L256.71 65.05C256.669 65.0747 256.623 65.0878 256.575 65.0878C256.527 65.0878 256.481 65.0747 256.44 65.05L255.57 64.56C255.5 64.56 255.51 64.44 255.57 64.4L256.4 63.92C256.442 63.8981 256.488 63.8867 256.535 63.8867C256.582 63.8867 256.628 63.8981 256.67 63.92Z" fill="#3A2C6D"/>
<path d="M255.45 63.21L256.31 63.71C256.38 63.71 256.37 63.82 256.31 63.87L255.49 64.35C255.446 64.3699 255.398 64.3802 255.35 64.3802C255.302 64.3802 255.254 64.3699 255.21 64.35L254.35 63.85C254.28 63.85 254.28 63.74 254.35 63.69L255.17 63.21C255.213 63.1881 255.261 63.1766 255.31 63.1766C255.358 63.1766 255.406 63.1881 255.45 63.21Z" fill="#3A2C6D"/>
<path d="M254.22 62.5L255.08 63C255.16 63 255.15 63.11 255.08 63.16L254.26 63.64C254.216 63.6599 254.168 63.6702 254.12 63.6702C254.072 63.6702 254.024 63.6599 253.98 63.64L253.12 63.14C253.05 63.14 253.06 63.03 253.12 62.98L253.94 62.5C253.984 62.4801 254.032 62.4698 254.08 62.4698C254.128 62.4698 254.176 62.4801 254.22 62.5Z" fill="#3A2C6D"/>
<path d="M253 61.79L253.87 62.29C253.94 62.29 253.93 62.41 253.87 62.45L253.04 62.93C252.998 62.9519 252.952 62.9633 252.905 62.9633C252.858 62.9633 252.812 62.9519 252.77 62.93L251.9 62.43C251.83 62.43 251.84 62.32 251.9 62.27L252.73 61.8C252.771 61.7766 252.817 61.7634 252.864 61.7616C252.911 61.7599 252.957 61.7696 253 61.79Z" fill="#3A2C6D"/>
<path d="M251.78 61.09L252.64 61.59C252.71 61.59 252.7 61.7 252.64 61.75L251.82 62.23C251.776 62.2499 251.728 62.2602 251.68 62.2602C251.632 62.2602 251.584 62.2499 251.54 62.23L250.68 61.73C250.61 61.73 250.61 61.62 250.68 61.57L251.5 61.09C251.544 61.0701 251.592 61.0598 251.64 61.0598C251.688 61.0598 251.736 61.0701 251.78 61.09Z" fill="#3A2C6D"/>
<path d="M250.55 60.38L251.42 60.88C251.49 60.88 251.48 61 251.42 61.04L250.59 61.52C250.548 61.5419 250.502 61.5533 250.455 61.5533C250.408 61.5533 250.362 61.5419 250.32 61.52L249.45 61.02C249.38 61.02 249.39 60.91 249.45 60.86L250.28 60.39C250.321 60.3665 250.367 60.3534 250.414 60.3516C250.461 60.3499 250.508 60.3596 250.55 60.38Z" fill="#3A2C6D"/>
<path d="M249.32 59.68L250.19 60.18C250.26 60.18 250.25 60.29 250.19 60.33L249.36 60.81C249.318 60.8319 249.272 60.8433 249.225 60.8433C249.178 60.8433 249.132 60.8319 249.09 60.81L248.22 60.31C248.15 60.31 248.16 60.2 248.22 60.15L249.05 59.68C249.092 59.6581 249.138 59.6467 249.185 59.6467C249.232 59.6467 249.278 59.6581 249.32 59.68Z" fill="#3A2C6D"/>
<path d="M248.1 59L248.96 59.5C249.03 59.5 249.02 59.61 248.96 59.66L248.14 60.13C248.096 60.152 248.049 60.1634 248 60.1634C247.951 60.1634 247.903 60.152 247.86 60.13L247 59.63C246.93 59.63 246.94 59.52 247 59.48L247.82 59C247.863 58.978 247.911 58.9666 247.96 58.9666C248.009 58.9666 248.056 58.978 248.1 59Z" fill="#3A2C6D"/>
<path d="M246.87 58.26L247.74 58.76C247.81 58.76 247.8 58.87 247.74 58.92L246.91 59.39C246.868 59.4119 246.822 59.4233 246.775 59.4233C246.728 59.4233 246.682 59.4119 246.64 59.39L245.77 58.89C245.7 58.89 245.71 58.77 245.77 58.73L246.6 58.25C246.642 58.2296 246.689 58.2199 246.736 58.2216C246.783 58.2234 246.829 58.2365 246.87 58.26Z" fill="#3A2C6D"/>
<path d="M245.65 57.55L246.51 58.05C246.58 58.05 246.57 58.16 246.51 58.21L245.68 58.69C245.638 58.7097 245.592 58.7199 245.545 58.7199C245.498 58.7199 245.452 58.7097 245.41 58.69L244.54 58.19C244.47 58.19 244.48 58.08 244.54 58.03L245.37 57.55C245.414 57.5301 245.462 57.5199 245.51 57.5199C245.558 57.5199 245.606 57.5301 245.65 57.55Z" fill="#3A2C6D"/>
<path d="M244.42 56.84L245.28 57.34C245.35 57.34 245.35 57.45 245.28 57.5L244.46 57.98C244.417 58.002 244.369 58.0134 244.32 58.0134C244.271 58.0134 244.223 58.002 244.18 57.98L243.32 57.48C243.25 57.48 243.26 57.37 243.32 57.32L244.14 56.84C244.184 56.8201 244.232 56.8098 244.28 56.8098C244.328 56.8098 244.376 56.8201 244.42 56.84Z" fill="#3A2C6D"/>
<path d="M243.19 56.14L244.06 56.63C244.13 56.63 244.12 56.75 244.06 56.79L243.23 57.27C243.188 57.2919 243.142 57.3033 243.095 57.3033C243.048 57.3033 243.002 57.2919 242.96 57.27L242.09 56.77C242.02 56.77 242.03 56.66 242.09 56.61L242.92 56.14C242.961 56.1153 243.007 56.1022 243.055 56.1022C243.103 56.1022 243.149 56.1153 243.19 56.14Z" fill="#3A2C6D"/>
<path d="M257.9 64.63L259.35 65.47C259.42 65.47 259.42 65.58 259.35 65.63L258.53 66.1C258.487 66.122 258.439 66.1334 258.39 66.1334C258.341 66.1334 258.293 66.122 258.25 66.1L256.8 65.26C256.73 65.26 256.74 65.15 256.8 65.1L257.62 64.63C257.663 64.608 257.711 64.5966 257.76 64.5966C257.809 64.5966 257.857 64.608 257.9 64.63Z" fill="#3A2C6D"/>
<path d="M240.86 56.08L241.72 56.58C241.76 56.5995 241.805 56.6096 241.85 56.6096C241.895 56.6096 241.939 56.5995 241.98 56.58L242.85 56.07C242.865 56.0643 242.878 56.0541 242.888 56.0407C242.897 56.0273 242.902 56.0113 242.902 55.995C242.902 55.9787 242.897 55.9627 242.888 55.9493C242.878 55.9359 242.865 55.9257 242.85 55.92H242.78C242.72 55.92 242.72 55.83 242.78 55.79L243.7 55.26C243.78 55.26 243.78 55.15 243.7 55.11L243.15 54.79C243.109 54.7705 243.065 54.7604 243.02 54.7604C242.975 54.7604 242.93 54.7705 242.89 54.79L242.03 55.29L241.85 55.39L241.72 55.47L241.59 55.54L240.85 55.97C240.837 55.9861 240.831 56.0065 240.833 56.027C240.835 56.0475 240.844 56.0665 240.86 56.08Z" fill="#3A2C6D"/>
<path d="M262 62.91L262.87 63.41C262.94 63.41 262.93 63.52 262.87 63.57L262.04 64.04C261.999 64.0647 261.953 64.0778 261.905 64.0778C261.857 64.0778 261.811 64.0647 261.77 64.04L260.9 63.55C260.83 63.5 260.84 63.43 260.9 63.39L261.73 62.91C261.772 62.8881 261.818 62.8767 261.865 62.8767C261.912 62.8767 261.958 62.8881 262 62.91Z" fill="#3A2C6D"/>
<path d="M260.82 62.2L261.69 62.7C261.76 62.7 261.75 62.82 261.69 62.86L260.86 63.34C260.818 63.3619 260.772 63.3734 260.725 63.3734C260.678 63.3734 260.632 63.3619 260.59 63.34L259.72 62.84C259.65 62.84 259.66 62.73 259.72 62.68L260.55 62.21C260.591 62.1866 260.637 62.1734 260.684 62.1716C260.731 62.1699 260.778 62.1796 260.82 62.2Z" fill="#3A2C6D"/>
<path d="M259.6 61.5L260.47 62C260.54 62 260.53 62.11 260.47 62.16L259.64 62.63C259.598 62.6519 259.552 62.6633 259.505 62.6633C259.458 62.6633 259.411 62.6519 259.37 62.63L258.5 62.13C258.43 62.13 258.44 62.01 258.5 61.97L259.33 61.49C259.372 61.4696 259.419 61.4599 259.466 61.4616C259.513 61.4634 259.559 61.4765 259.6 61.5Z" fill="#3A2C6D"/>
<path d="M249.21 55.5L250.07 56C250.14 56 250.13 56.11 250.07 56.16L249.25 56.63C249.207 56.652 249.159 56.6634 249.11 56.6634C249.061 56.6634 249.013 56.652 248.97 56.63L248.11 56.13C248.03 56.13 248.04 56.02 248.11 55.97L248.93 55.5C248.973 55.478 249.021 55.4666 249.07 55.4666C249.119 55.4666 249.167 55.478 249.21 55.5Z" fill="#3A2C6D"/>
<path d="M248 54.79L248.87 55.29C248.94 55.29 248.93 55.4 248.87 55.45L248.04 55.93C247.998 55.9497 247.952 55.9599 247.905 55.9599C247.858 55.9599 247.812 55.9497 247.77 55.93L246.9 55.43C246.83 55.43 246.84 55.32 246.9 55.27L247.73 54.79C247.772 54.7703 247.818 54.7601 247.865 54.7601C247.912 54.7601 247.958 54.7703 248 54.79Z" fill="#3A2C6D"/>
<path d="M246.76 54.09L247.63 54.59C247.7 54.59 247.69 54.7 247.63 54.75L246.8 55.22C246.758 55.2419 246.712 55.2533 246.665 55.2533C246.618 55.2533 246.572 55.2419 246.53 55.22L245.66 54.72C245.59 54.72 245.6 54.61 245.66 54.57L246.49 54.09C246.532 54.0681 246.578 54.0567 246.625 54.0567C246.672 54.0567 246.718 54.0681 246.76 54.09Z" fill="#3A2C6D"/>
<path d="M245.54 53.38L246.41 53.88C246.48 53.88 246.47 53.99 246.41 54.04L245.58 54.52C245.538 54.5397 245.492 54.5499 245.445 54.5499C245.398 54.5499 245.352 54.5397 245.31 54.52L244.44 54.02C244.37 54.02 244.38 53.91 244.44 53.86L245.27 53.38C245.312 53.3603 245.358 53.3501 245.405 53.3501C245.452 53.3501 245.498 53.3603 245.54 53.38Z" fill="#3A2C6D"/>
<path d="M258.07 60.61L259.25 61.29C259.32 61.29 259.31 61.41 259.25 61.45L258.42 61.93C258.378 61.9519 258.332 61.9634 258.285 61.9634C258.238 61.9634 258.192 61.9519 258.15 61.93L257 61.26C256.93 61.26 256.93 61.15 257 61.1L257.82 60.62C257.899 60.585 257.988 60.5815 258.07 60.61Z" fill="#3A2C6D"/>
<path d="M250.43 56.2L251.61 56.88C251.68 56.88 251.67 56.99 251.61 57.04L250.78 57.52C250.738 57.5397 250.692 57.5499 250.645 57.5499C250.598 57.5499 250.552 57.5397 250.51 57.52L249.33 56.84C249.26 56.84 249.26 56.73 249.33 56.68L250.15 56.2C250.194 56.1801 250.242 56.1698 250.29 56.1698C250.338 56.1698 250.386 56.1801 250.43 56.2Z" fill="#3A2C6D"/>
<path d="M252 57.09L257.75 60.41C257.82 60.41 257.81 60.52 257.75 60.57L256.93 61.04C256.886 61.062 256.839 61.0734 256.79 61.0734C256.741 61.0734 256.693 61.062 256.65 61.04L250.9 57.72C250.83 57.72 250.84 57.61 250.9 57.57L251.73 57.09C251.772 57.0681 251.818 57.0567 251.865 57.0567C251.912 57.0567 251.958 57.0681 252 57.09Z" fill="#3A2C6D"/>
<path d="M257.53 63L258.39 63.5C258.46 63.5 258.45 63.61 258.39 63.66L257.57 64.14C257.526 64.1599 257.478 64.1702 257.43 64.1702C257.382 64.1702 257.334 64.1599 257.29 64.14L256.43 63.64C256.36 63.64 256.36 63.53 256.43 63.48L257.25 63C257.294 62.9801 257.342 62.9698 257.39 62.9698C257.438 62.9698 257.486 62.9801 257.53 63Z" fill="#3A2C6D"/>
<path d="M256.3 62.33L257.17 62.83C257.24 62.83 257.23 62.95 257.17 62.99L256.34 63.47C256.298 63.4919 256.252 63.5034 256.205 63.5034C256.158 63.5034 256.112 63.4919 256.07 63.47L255.2 62.97C255.13 62.97 255.14 62.86 255.2 62.81L256.03 62.34C256.071 62.3166 256.117 62.3034 256.164 62.3017C256.211 62.2999 256.257 62.3096 256.3 62.33Z" fill="#3A2C6D"/>
<path d="M255.08 61.63L255.95 62.13C256.02 62.13 256.01 62.24 255.95 62.29L255.12 62.76C255.077 62.782 255.029 62.7934 254.98 62.7934C254.931 62.7934 254.883 62.782 254.84 62.76L253.98 62.26C253.91 62.21 253.92 62.14 253.98 62.1L254.81 61.62C254.852 61.5996 254.899 61.5899 254.946 61.5916C254.993 61.5934 255.039 61.6066 255.08 61.63Z" fill="#3A2C6D"/>
<path d="M253.86 60.92L254.72 61.42C254.79 61.42 254.78 61.53 254.72 61.58L253.9 62.06C253.856 62.0799 253.808 62.0902 253.76 62.0902C253.712 62.0902 253.664 62.0799 253.62 62.06L252.76 61.56C252.69 61.56 252.7 61.45 252.76 61.4L253.58 60.92C253.624 60.9001 253.672 60.8898 253.72 60.8898C253.768 60.8898 253.816 60.9001 253.86 60.92Z" fill="#3A2C6D"/>
<path d="M252.63 60.22L253.5 60.72C253.57 60.72 253.56 60.83 253.5 60.88L252.67 61.35C252.628 61.3719 252.582 61.3834 252.535 61.3834C252.488 61.3834 252.442 61.3719 252.4 61.35L251.53 60.85C251.46 60.85 251.47 60.74 251.53 60.69L252.36 60.22C252.402 60.1981 252.448 60.1867 252.495 60.1867C252.542 60.1867 252.588 60.1981 252.63 60.22Z" fill="#3A2C6D"/>
<path d="M251.41 59.51L252.28 60.01C252.35 60.01 252.34 60.12 252.28 60.17L251.45 60.65C251.408 60.6697 251.362 60.6799 251.315 60.6799C251.268 60.6799 251.222 60.6697 251.18 60.65L250.31 60.15C250.24 60.15 250.25 60.04 250.31 59.99L251.14 59.51C251.182 59.4903 251.228 59.4801 251.275 59.4801C251.322 59.4801 251.368 59.4903 251.41 59.51Z" fill="#3A2C6D"/>
<path d="M250.19 58.8L251.05 59.3C251.12 59.3 251.12 59.42 251.05 59.46L250.23 59.94C250.187 59.962 250.139 59.9734 250.09 59.9734C250.041 59.9734 249.993 59.962 249.95 59.94L249.09 59.44C249.02 59.44 249.03 59.33 249.09 59.28L249.91 58.81C249.953 58.7865 250 58.7733 250.049 58.7716C250.097 58.7698 250.146 58.7796 250.19 58.8Z" fill="#3A2C6D"/>
<path d="M249 58.1L249.86 58.6C249.93 58.6 249.92 58.71 249.86 58.76L249.04 59.23C248.997 59.2546 248.949 59.2675 248.9 59.2675C248.851 59.2675 248.802 59.2546 248.76 59.23L247.9 58.74C247.83 58.74 247.83 58.62 247.9 58.58L248.72 58.1C248.763 58.078 248.811 58.0666 248.86 58.0666C248.909 58.0666 248.957 58.078 249 58.1Z" fill="#3A2C6D"/>
<path d="M247.74 57.39L248.61 57.89C248.68 57.89 248.67 58 248.61 58.05L247.78 58.53C247.738 58.5497 247.692 58.5599 247.645 58.5599C247.598 58.5599 247.552 58.5497 247.51 58.53L246.64 58.03C246.57 58.03 246.58 57.92 246.64 57.87L247.47 57.39C247.512 57.3703 247.558 57.3601 247.605 57.3601C247.652 57.3601 247.698 57.3703 247.74 57.39Z" fill="#3A2C6D"/>
<path d="M246.52 56.69L247.38 57.19C247.46 57.19 247.45 57.3 247.38 57.34L246.55 57.82C246.507 57.842 246.459 57.8534 246.41 57.8534C246.361 57.8534 246.313 57.842 246.27 57.82L245.41 57.32C245.34 57.32 245.35 57.21 245.41 57.16L246.23 56.69C246.275 56.6664 246.324 56.654 246.375 56.654C246.425 56.654 246.475 56.6664 246.52 56.69Z" fill="#3A2C6D"/>
<path d="M245.3 56L246.16 56.5C246.23 56.5 246.22 56.61 246.16 56.66L245.34 57.14C245.296 57.1599 245.248 57.1702 245.2 57.1702C245.152 57.1702 245.104 57.1599 245.06 57.14L244.2 56.64C244.13 56.64 244.14 56.53 244.2 56.48L245 56C245.046 55.9746 245.097 55.9613 245.15 55.9613C245.202 55.9613 245.254 55.9746 245.3 56Z" fill="#3A2C6D"/>
<path d="M244.07 55.27L244.94 55.77C245.01 55.77 245 55.89 244.94 55.93L244.11 56.41C244.068 56.4319 244.022 56.4433 243.975 56.4433C243.928 56.4433 243.882 56.4319 243.84 56.41L242.97 55.91C242.9 55.91 242.91 55.8 242.97 55.75L243.8 55.28C243.841 55.2565 243.887 55.2434 243.934 55.2416C243.981 55.2399 244.028 55.2496 244.07 55.27Z" fill="#3A2C6D"/>
<path d="M258.75 63.75L260.54 64.75C260.61 64.75 260.6 64.86 260.54 64.91L259.71 65.39C259.668 65.4097 259.622 65.4199 259.575 65.4199C259.528 65.4199 259.482 65.4097 259.44 65.39L257.65 64.39C257.58 64.39 257.59 64.28 257.65 64.23L258.47 63.76C258.513 63.7365 258.56 63.7233 258.609 63.7216C258.657 63.7198 258.706 63.7296 258.75 63.75Z" fill="#3A2C6D"/>
<path d="M259.32 62.71L260.18 63.21C260.26 63.21 260.25 63.32 260.18 63.36L259.36 63.84C259.317 63.862 259.269 63.8734 259.22 63.8734C259.171 63.8734 259.123 63.862 259.08 63.84L258.22 63.34C258.15 63.34 258.16 63.23 258.22 63.18L259.04 62.71C259.083 62.688 259.131 62.6766 259.18 62.6766C259.229 62.6766 259.277 62.688 259.32 62.71Z" fill="#3A2C6D"/>
<path d="M258.1 62L258.96 62.5C259.03 62.5 259.02 62.61 258.96 62.66L258.14 63.14C258.096 63.1599 258.048 63.1702 258 63.1702C257.952 63.1702 257.904 63.1599 257.86 63.14L257 62.64C256.93 62.64 256.94 62.53 257 62.48L257.82 62C257.863 61.978 257.911 61.9666 257.96 61.9666C258.009 61.9666 258.056 61.978 258.1 62Z" fill="#3A2C6D"/>
<path d="M256.87 61.29L257.74 61.79C257.81 61.79 257.8 61.91 257.74 61.95L256.91 62.43C256.868 62.4519 256.822 62.4633 256.775 62.4633C256.728 62.4633 256.682 62.4519 256.64 62.43L255.77 61.93C255.7 61.93 255.71 61.82 255.77 61.77L256.6 61.3C256.641 61.2766 256.687 61.2634 256.734 61.2616C256.781 61.2599 256.827 61.2696 256.87 61.29Z" fill="#3A2C6D"/>
<path d="M255.65 60.59L256.52 61.09C256.59 61.09 256.58 61.2 256.52 61.25L255.69 61.72C255.649 61.7447 255.603 61.7578 255.555 61.7578C255.507 61.7578 255.461 61.7447 255.42 61.72L254.55 61.23C254.48 61.18 254.49 61.11 254.55 61.07L255.38 60.59C255.422 60.5681 255.468 60.5567 255.515 60.5567C255.562 60.5567 255.608 60.5681 255.65 60.59Z" fill="#3A2C6D"/>
<path d="M254.43 59.88L255.29 60.38C255.36 60.38 255.36 60.49 255.29 60.54L254.47 61.02C254.426 61.0399 254.378 61.0502 254.33 61.0502C254.282 61.0502 254.234 61.0399 254.19 61.02L253.33 60.52C253.26 60.52 253.27 60.41 253.33 60.36L254.15 59.88C254.194 59.8601 254.242 59.8499 254.29 59.8499C254.338 59.8499 254.386 59.8601 254.43 59.88Z" fill="#3A2C6D"/>
<path d="M253.21 59.18L254.07 59.68C254.14 59.68 254.13 59.79 254.07 59.83L253.25 60.31C253.206 60.332 253.159 60.3434 253.11 60.3434C253.061 60.3434 253.013 60.332 252.97 60.31L252.11 59.81C252.04 59.81 252.04 59.7 252.11 59.65L252.93 59.18C252.973 59.158 253.021 59.1466 253.07 59.1466C253.119 59.1466 253.166 59.158 253.21 59.18Z" fill="#3A2C6D"/>
<path d="M252 58.47L252.87 58.97C252.94 58.97 252.93 59.08 252.87 59.13L252.04 59.61C251.998 59.6297 251.952 59.6399 251.905 59.6399C251.858 59.6399 251.812 59.6297 251.77 59.61L250.9 59.11C250.83 59.11 250.84 59 250.9 58.95L251.73 58.47C251.772 58.4503 251.818 58.4401 251.865 58.4401C251.912 58.4401 251.958 58.4503 252 58.47Z" fill="#3A2C6D"/>
<path d="M250.76 57.76L251.63 58.26C251.7 58.26 251.69 58.38 251.63 58.42L250.8 58.9C250.758 58.9219 250.712 58.9333 250.665 58.9333C250.618 58.9333 250.572 58.9219 250.53 58.9L249.66 58.4C249.59 58.4 249.6 58.29 249.66 58.24L250.49 57.77C250.531 57.7466 250.577 57.7334 250.624 57.7316C250.671 57.7299 250.717 57.7396 250.76 57.76Z" fill="#3A2C6D"/>
<path d="M249.54 57.06L250.4 57.56C250.47 57.56 250.46 57.67 250.4 57.72L249.58 58.19C249.537 58.212 249.489 58.2234 249.44 58.2234C249.391 58.2234 249.343 58.212 249.3 58.19L248.44 57.69C248.37 57.69 248.38 57.57 248.44 57.53L249.26 57.05C249.304 57.0296 249.352 57.0198 249.401 57.0216C249.45 57.0233 249.497 57.0365 249.54 57.06Z" fill="#3A2C6D"/>
<path d="M248.32 56.35L249.18 56.85C249.25 56.85 249.24 56.96 249.18 57.01L248.36 57.49C248.316 57.5099 248.268 57.5202 248.22 57.5202C248.172 57.5202 248.124 57.5099 248.08 57.49L247.22 56.99C247.14 56.99 247.15 56.88 247.22 56.83L248.04 56.35C248.084 56.3301 248.132 56.3199 248.18 56.3199C248.228 56.3199 248.276 56.3301 248.32 56.35Z" fill="#3A2C6D"/>
<path d="M247.09 55.65L247.96 56.15C248.03 56.15 248.02 56.26 247.96 56.31L247.13 56.78C247.088 56.8019 247.042 56.8133 246.995 56.8133C246.948 56.8133 246.902 56.8019 246.86 56.78L245.99 56.28C245.92 56.28 245.93 56.17 245.99 56.13L246.82 55.65C246.862 55.6281 246.908 55.6167 246.955 55.6167C247.002 55.6167 247.048 55.6281 247.09 55.65Z" fill="#3A2C6D"/>
<path d="M244.36 54.07L246.74 55.44C246.81 55.44 246.8 55.55 246.74 55.6L245.91 56.08C245.866 56.0999 245.818 56.1102 245.77 56.1102C245.722 56.1102 245.674 56.0999 245.63 56.08L243.26 54.7C243.19 54.7 243.19 54.59 243.26 54.55L244.08 54.07C244.123 54.048 244.171 54.0366 244.22 54.0366C244.269 54.0366 244.317 54.048 244.36 54.07Z" fill="#3A2C6D"/>
<path d="M260.54 63.41L261.72 64.09C261.79 64.09 261.78 64.21 261.72 64.25L260.9 64.73C260.857 64.752 260.809 64.7634 260.76 64.7634C260.711 64.7634 260.663 64.752 260.62 64.73L259.44 64.05C259.37 64.05 259.38 63.94 259.44 63.89L260.27 63.41C260.312 63.3903 260.358 63.3801 260.405 63.3801C260.452 63.3801 260.498 63.3903 260.54 63.41Z" fill="#3A2C6D"/>
<path d="M239.57 56.83L256.93 66.83C257 66.83 257 66.94 256.93 66.99L256.52 67.22C256.478 67.2419 256.432 67.2534 256.385 67.2534C256.338 67.2534 256.292 67.2419 256.25 67.22L238.88 57.22C238.81 57.22 238.82 57.11 238.88 57.06L239.29 56.82C239.335 56.8017 239.383 56.7931 239.431 56.7948C239.479 56.7966 239.527 56.8086 239.57 56.83Z" fill="#3A2C6D"/>
<path d="M259.89 57.28L259.77 57.34L256.77 59.08L251.44 56L251.33 55.93L254.44 54.14L259.89 57.28Z" fill="#BFBFBF"/>
<path d="M259.77 57.34L256.77 59.08L251.44 56L254.44 54.27L259.77 57.34Z" fill="#E5E5E5"/>
<path d="M268.44 61.32V61.59C268.442 61.7819 268.392 61.9708 268.298 62.1376C268.203 62.3044 268.066 62.4432 267.9 62.54L257.32 68.64C257.155 68.7377 256.967 68.7892 256.775 68.7892C256.583 68.7892 256.395 68.7377 256.23 68.64L237.09 57.64C236.916 57.5396 236.772 57.3932 236.675 57.2169C236.578 57.0406 236.531 56.8411 236.54 56.64V56.37L256.77 68.05L268.44 61.32Z" fill="#E5E5E5"/>
<path d="M256.47 68.22C256.289 68.2912 256.095 68.321 255.901 68.3072C255.707 68.2933 255.519 68.2362 255.35 68.14L236.35 57.14C236.184 57.0446 236.041 56.9134 235.932 56.756C235.823 56.5986 235.751 56.4189 235.72 56.23L233.63 43.79C233.625 43.7201 233.625 43.6499 233.63 43.58C233.629 43.4083 233.664 43.2382 233.731 43.08C233.798 42.9219 233.896 42.779 234.02 42.66L253.82 54.09C253.939 54.1633 254.042 54.2608 254.121 54.3762C254.2 54.4916 254.254 54.6223 254.28 54.76L256.47 68.22Z" fill="#F4F4F4"/>
<path d="M256.77 68.06L256.64 68.14L256.47 68.22L254.21 54.76C254.184 54.6223 254.13 54.4916 254.051 54.3762C253.972 54.2608 253.869 54.1633 253.75 54.09L234 42.66C234.073 42.5773 234.161 42.5094 234.26 42.46L254.1 53.91C254.221 53.9822 254.326 54.0793 254.407 54.1947C254.488 54.3102 254.543 54.4415 254.57 54.58L256.77 68.06Z" fill="#E5E5E5"/>
<path d="M271.16 14.83C271.16 14.83 270.91 19.56 271.02 19.98C271.13 20.4 273.19 21.79 273.79 22.29C274.39 22.79 270.52 26.61 268.64 27.47C266.76 28.33 260.78 26.06 260.64 23.12C260.5 20.18 261.64 17.73 262.58 17.6C263.52 17.47 271.16 14.83 271.16 14.83Z" fill="#FFCEA9"/>
<path d="M271.68 20.8C271.68 20.8 268.25 25.92 263.46 26.4C261.95 24.91 261.81 19.61 263.9 17.92C263.9 17.92 261.98 16.36 260.66 16.67C259.23 17.5148 258.162 18.8571 257.66 20.44C256.433 23.9736 255.861 27.7011 255.97 31.44C256.05 36.44 255.97 49.15 255.97 49.15C256.251 50.6495 256.846 52.0726 257.717 53.3256C258.587 54.5786 259.713 55.6332 261.02 56.42C264.482 58.3839 268.564 58.9492 272.43 58C274.86 57.43 275.76 56.08 276.6 54.31C276.38 50.8 274.99 43.55 275.6 39.12C276.21 34.69 277.12 31.39 277.36 27.82C277.6 24.25 276.89 24.31 275.09 23.03C274.009 22.2052 272.869 21.4599 271.68 20.8Z" fill="#F4F4F4"/>
<path d="M266.18 61.59C267.041 61.0168 267.94 60.5023 268.87 60.05C269.737 59.7734 270.526 59.2934 271.17 58.65C272.01 57.83 273.39 54.71 274.38 51.65C275.365 48.2184 275.754 44.6432 275.53 41.08C275.12 36.81 273.58 30.84 273.19 28.39C272.8 25.94 273.59 24.95 274.74 24.05C276.08 22.99 277.93 23.46 278.92 26.9C280.195 31.6593 280.933 36.5464 281.12 41.47C281.161 45.1275 280.596 48.7666 279.45 52.24C278.431 55.2155 277.054 58.0562 275.35 60.7C274.88 61.49 274.72 62.2 274 63.82C273.309 65.4478 272.231 66.8826 270.86 68C269.66 68.86 269.09 69 268.8 68.82C268.51 68.64 268.52 68.23 269.03 67.82C269.881 67.1507 270.606 66.3345 271.17 65.41C271.17 65.41 270.12 66.47 269.43 67.05C268.823 67.5631 268.15 67.9935 267.43 68.33C266.73 68.64 265.75 68.04 266.25 67.57C266.75 67.1 267.25 66.86 268.25 65.99C268.788 65.5336 269.268 65.0131 269.68 64.44C268.976 64.9818 268.231 65.4667 267.45 65.89C266.847 66.2548 266.155 66.4452 265.45 66.44C265.08 66.44 264.63 65.9 265.33 65.44C266.292 64.9188 267.189 64.2843 268 63.55C268.77 62.79 269.2 62.14 269 62.13C268.8 62.12 268.36 62.59 267.46 62.88C266.56 63.17 265.59 62.88 265.46 62.41C265.33 61.94 265.34 62 266.18 61.59Z" fill="#FFCEA9"/>
<path d="M260.44 7.77C261.01 4.1 263.66 1.32 267.44 1.53C268.965 1.60754 270.426 2.1624 271.618 3.1161C272.81 4.06981 273.672 5.3741 274.082 6.84454C274.493 8.31498 274.43 9.87716 273.904 11.3102C273.378 12.7432 272.414 13.9745 271.15 14.83C271.016 15.3876 270.818 15.9278 270.56 16.44C269.23 18 265.18 19 264 18.8C263.31 18.7373 262.654 18.4681 262.119 18.0276C261.584 17.587 261.194 16.9954 261 16.33C259.74 13.45 260.13 9.59 260.44 7.77Z" fill="#FFCEA9"/>
<path d="M271.16 14.83L270.81 11.62C270.81 11.62 273.43 4.84 267.24 6.14C263.16 7 262.13 7.38 260.89 4.64C259.65 1.9 264 -0.569997 269.23 0.120003C271.022 0.305335 272.68 1.15785 273.873 2.50831C275.066 3.85877 275.707 5.60844 275.67 7.41C275.54 9.43 275 13.51 271.16 14.83Z" fill="#3A2C6D"/>
<path d="M281.75 33.23C281.75 33.23 278.37 36.59 274.38 35.62C273.81 35.23 272.43 27.38 272.43 27.38C272.43 27.38 272.43 23.03 275.77 23.14C279.11 23.25 281.75 33.23 281.75 33.23Z" fill="#EDEDED"/>
<path d="M256.25 26.71C255.305 26.676 254.409 26.2783 253.75 25.6C253.89 23.84 256.14 17.16 260.66 16.67C259.43 17.5324 258.456 18.7104 257.84 20.08C257.137 22.2448 256.605 24.4616 256.25 26.71Z" fill="#EDEDED"/>
<path d="M459.4 311.15L375.88 262.93C370.63 259.93 366.38 251.78 366.38 244.79V113.38C366.38 106.38 370.63 103.18 375.88 106.2L459.4 154.43C464.64 157.43 468.89 165.58 468.89 172.57V304C468.89 311 464.64 314.18 459.4 311.15Z" fill="#211B49"/>
<path d="M462.74 313.07L465.6 311.66L463.67 307.87L462.74 313.07Z" fill="#211B49"/>
<path d="M367.94 106.57C368.781 106.07 369.664 105.645 370.58 105.3L372.7 109.49L367.94 106.57Z" fill="#211B49"/>
<path d="M457.21 312.25L373.68 264C368.44 261 364.19 252.85 364.19 245.86V114.48C364.19 107.48 368.44 104.27 373.68 107.3L457.21 155.53C462.45 158.53 466.7 166.67 466.7 173.66V305.07C466.7 312.06 462.45 315.28 457.21 312.25Z" fill="#2E245B"/>
<path d="M388.87 134.7L373.68 125.93V120.45L388.87 129.22V134.7Z" fill="#A298E2"/>
<path d="M456.26 173.61L391.72 136.34V130.87L456.26 168.13V173.61Z" fill="#C33AFC"/>
<path d="M388.87 152.24L373.68 143.47V137.99L388.87 146.76V152.24Z" fill="#A298E2"/>
<path d="M434.43 178.54L391.72 153.88V148.4L434.43 173.06V178.54Z" fill="#F4CE2C"/>
<path d="M388.87 161L373.68 152.24V146.76L388.87 155.52V161Z" fill="#A298E2"/>
<path d="M444.87 193.34L391.72 162.65V157.17L444.87 187.86V193.34Z" fill="#FF8657"/>
<path d="M388.87 169.77L373.68 161V155.52L388.87 164.29V169.77Z" fill="#A298E2"/>
<path d="M428.74 192.79L391.72 171.42V165.94L428.74 187.31V192.79Z" fill="#A298E2"/>
<path d="M388.87 143.47L373.68 134.7V129.22L388.87 137.99V143.47Z" fill="#A298E2"/>
<path d="M423.99 163.75L391.72 145.11V139.63L423.99 158.26V163.75Z" fill="#4D3BFF"/>
<path d="M388.87 178.54L373.68 169.77V164.29L388.87 173.06V178.54Z" fill="#A298E2"/>
<path d="M410.7 191.14L391.72 180.18V174.7L410.7 185.66V191.14Z" fill="#C33AFC"/>
<path d="M388.87 196.07L373.68 187.31V181.83L388.87 190.6V196.07Z" fill="#A298E2"/>
<path d="M451.52 232.24L391.72 197.72V192.24L451.52 226.76V232.24Z" fill="#F4CE2C"/>
<path d="M388.87 204.84L373.68 196.07V190.59L388.87 199.36V204.84Z" fill="#A298E2"/>
<path d="M409.75 216.9L391.72 206.49V201.01L409.75 211.42V216.9Z" fill="#FF8657"/>
<path d="M388.87 213.61L373.68 204.84V199.36L388.87 208.13V213.61Z" fill="#A298E2"/>
<path d="M444.87 245.94L391.72 215.25V209.78L444.87 240.46V245.94Z" fill="#A298E2"/>
<path d="M388.87 187.31L373.68 178.54V173.06L388.87 181.83V187.31Z" fill="#A298E2"/>
<path d="M442.02 218L391.72 188.95V183.47L442.02 212.52V218Z" fill="#4D3BFF"/>
<path d="M388.87 222.38L373.68 213.61V208.13L388.87 216.9V222.38Z" fill="#A298E2"/>
<path d="M398.36 227.86L391.72 224.02V218.54L398.36 222.38V227.86Z" fill="#C33AFC"/>
<path d="M388.87 239.91L373.68 231.15V225.67L388.87 234.44V239.91Z" fill="#A298E2"/>
<path d="M404.06 248.68L391.72 241.56V236.08L404.06 243.2V248.68Z" fill="#F4CE2C"/>
<path d="M388.87 248.68L373.68 239.91V234.43L388.87 243.2V248.68Z" fill="#A298E2"/>
<path d="M423.99 268.96L391.72 250.33V244.85L423.99 263.48V268.96Z" fill="#FF8657"/>
<path d="M388.87 257.45L373.68 248.68V243.2L388.87 251.97V257.45Z" fill="#A298E2"/>
<path d="M442.97 288.69L391.72 259.09V253.61L442.97 283.21V288.69Z" fill="#A298E2"/>
<path d="M388.87 231.15L373.68 222.38V216.9L388.87 225.67V231.15Z" fill="#A298E2"/>
<path d="M456.26 270.06L391.72 232.79V227.31L456.26 264.57V270.06Z" fill="#4D3BFF"/>
<path d="M36.12 211.94L27 207.26L7.88998 218.26C3.55998 220.76 0.039978 218.74 0.039978 213.73V192.91C0.187717 190.186 0.975477 187.535 2.33937 185.172C3.70325 182.809 5.60487 180.801 7.88998 179.31L121.7 113.58C126.03 111.08 129.55 113.11 129.55 118.11V139C129.402 141.724 128.614 144.375 127.251 146.738C125.887 149.101 123.985 151.109 121.7 152.6L45.18 196.74" fill="#B1B4C4"/>
<path d="M126.7 112.77L131 114.51L127.36 118.25L124.78 114.12L126.7 112.77Z" fill="#B1B4C4"/>
<path d="M36.12 211.94L40.65 213.76L40.66 209.86L36.65 209.06L36.12 211.94Z" fill="#B1B4C4"/>
<path d="M7.61 221C7.78 221.36 2.7 219.28 2.52 219C2.34 218.72 8.68 215 8.68 215L7.61 221Z" fill="#B1B4C4"/>
<path d="M49.71 198.55L126.23 154.38C128.513 152.888 130.414 150.879 131.777 148.516C133.141 146.154 133.93 143.504 134.08 140.78V119.93C134.08 114.93 130.56 112.93 126.23 115.39L12.38 181.12C10.096 182.612 8.1952 184.62 6.83145 186.983C5.46771 189.346 4.67928 191.996 4.52997 194.72V215.57C4.52997 220.57 8.04997 222.57 12.38 220.1L31.49 209.1L40.65 213.79L49.71 198.55Z" fill="#E9EAF2"/>
<path d="M123.87 133.53L14.74 196.53V189.28L123.87 126.27V133.53Z" fill="#8C50FF"/>
<path d="M86.19 167.98L14.74 209.23V201.97L86.19 160.72V167.98Z" fill="#8C50FF"/>
</g>
<defs>
<linearGradient id="paint0_linear" x1="321.247" y1="289.532" x2="404.35" y2="144.932" gradientUnits="userSpaceOnUse">
<stop offset="0.21" stop-color="white" stop-opacity="0"/>
<stop offset="1" stop-color="white" stop-opacity="0.2"/>
</linearGradient>
<linearGradient id="paint1_linear" x1="342.773" y1="239.828" x2="320.317" y2="278.902" gradientUnits="userSpaceOnUse">
<stop stop-color="#E9EAF2" stop-opacity="0.8"/>
<stop offset="1" stop-color="#E9EAF2" stop-opacity="0"/>
</linearGradient>
<clipPath id="clip0">
<rect width="468.89" height="500" fill="white"/>
</clipPath>
</defs>
</svg>
