<svg width="231" height="231" viewBox="0 0 231 231" fill="none" xmlns="http://www.w3.org/2000/svg">
<g filter="url(#filter0_d)">
<path d="M202.895 106.164L124.451 27.7201C122.045 25.3139 118.676 23.8701 115.307 23.8701C111.939 23.8701 108.57 25.3139 106.164 27.7201L89.32 44.5639L109.051 64.2951C110.976 63.3326 112.901 62.8514 115.307 62.8514C123.489 62.8514 129.745 69.1076 129.745 77.2889C129.745 79.6951 129.264 81.6201 128.301 83.5451L147.551 102.795C149.476 101.833 151.401 101.351 153.807 101.351C161.989 101.351 168.245 107.608 168.245 115.789C168.245 123.97 161.989 130.226 153.807 130.226C145.626 130.226 139.37 123.97 139.37 115.789C139.37 113.383 139.851 111.458 140.814 109.533L121.564 90.2826C121.082 90.2826 120.601 90.7639 120.12 90.7639V140.814C125.895 142.739 129.745 148.033 129.745 154.289C129.745 162.47 123.489 168.726 115.307 168.726C107.126 168.726 100.87 162.47 100.87 154.289C100.87 148.033 104.72 142.739 110.495 140.814V90.2826C104.72 88.3576 100.87 83.0639 100.87 76.8076C100.87 74.4014 101.351 72.4764 102.314 70.5514L82.5825 50.8201L27.72 106.164C25.3137 108.57 23.87 111.939 23.87 115.308C23.87 118.676 25.3137 122.045 27.72 124.451L106.164 202.895C108.57 205.301 111.939 206.745 115.307 206.745C118.676 206.745 122.045 205.301 124.451 202.895L202.895 124.451C205.301 122.045 206.745 118.676 206.745 115.308C206.745 111.939 205.301 108.57 202.895 106.164Z" fill="#F4511E"/>
</g>
<defs>
<filter id="filter0_d" x="-4" y="0" width="239" height="239" filterUnits="userSpaceOnUse" color-interpolation-filters="sRGB">
<feFlood flood-opacity="0" result="BackgroundImageFix"/>
<feColorMatrix in="SourceAlpha" type="matrix" values="0 0 0 0 0 0 0 0 0 0 0 0 0 0 0 0 0 0 127 0"/>
<feOffset dy="4"/>
<feGaussianBlur stdDeviation="2"/>
<feColorMatrix type="matrix" values="0 0 0 0 0 0 0 0 0 0 0 0 0 0 0 0 0 0 0.25 0"/>
<feBlend mode="normal" in2="BackgroundImageFix" result="effect1_dropShadow"/>
<feBlend mode="normal" in="SourceGraphic" in2="effect1_dropShadow" result="shape"/>
</filter>
</defs>
</svg>
