<svg width="231" height="231" viewBox="0 0 231 231" fill="none" xmlns="http://www.w3.org/2000/svg">
<g filter="url(#filter0_d)">
<path d="M191.86 124.913C184.458 124.952 178.048 126.727 172.677 129.379C170.713 125.457 168.721 122.006 168.389 119.441C167.999 116.448 167.547 114.658 168.018 111.092C168.49 107.526 170.555 102.472 170.526 102.092C170.497 101.712 170.064 99.8978 165.795 99.8641C161.526 99.8352 157.874 100.687 157.445 101.813C157.017 102.939 156.194 105.475 155.684 108.122C154.938 111.992 147.161 125.799 142.748 133.017C141.304 130.197 140.077 127.714 139.822 125.751C139.432 122.757 138.98 120.967 139.451 117.401C139.923 113.835 141.988 108.782 141.959 108.401C141.93 108.021 141.497 106.207 137.228 106.173C132.959 106.144 129.307 106.996 128.878 108.122C128.45 109.248 127.988 111.881 127.117 114.432C126.241 116.977 115.909 140.005 113.199 145.977C111.818 149.019 110.62 151.464 109.773 153.129C109.768 153.124 109.768 153.119 109.768 153.119C109.768 153.119 109.715 153.23 109.628 153.418C108.902 154.837 108.473 155.622 108.473 155.622C108.473 155.622 108.478 155.631 108.488 155.651C107.91 156.695 107.294 157.662 106.991 157.662C106.779 157.662 106.351 154.885 107.083 151.074C108.623 143.085 112.314 130.63 112.28 130.197C112.261 129.976 112.968 127.805 109.869 126.67C106.856 125.568 105.783 127.406 105.509 127.411C105.244 127.416 105.047 128.061 105.047 128.061C105.047 128.061 108.401 114.051 98.6462 114.051C92.544 114.051 84.0932 120.726 79.9304 126.776C77.3028 128.21 71.677 131.28 65.7143 134.557C63.4235 135.818 61.0847 137.103 58.8661 138.326C58.7169 138.157 58.5629 137.994 58.4089 137.825C46.575 125.202 24.707 116.275 25.631 99.301C25.9678 93.1314 28.1142 76.8844 67.6585 57.182C100.051 41.0409 125.986 45.4829 130.466 55.3244C136.867 69.3914 116.606 95.528 82.9671 99.301C70.1514 100.74 63.3995 95.7687 61.7199 93.9207C59.9537 91.9716 59.689 91.885 59.0297 92.2507C57.9565 92.8475 58.6351 94.5656 59.0297 95.5906C60.0355 98.2038 64.155 102.838 71.1813 105.148C77.3653 107.179 92.414 108.291 110.61 101.25C130.996 93.3672 146.911 71.4319 142.233 53.101C137.478 34.4574 106.563 28.3263 77.3028 38.7213C59.8671 44.9102 41.0165 54.6218 27.4597 67.2979C11.3427 82.3707 8.77278 95.4944 9.83153 100.976C13.5949 120.457 40.4438 133.143 51.195 142.541C50.6656 142.835 50.1651 143.109 49.7127 143.359C44.3227 146.026 23.8552 156.738 18.7347 168.052C12.926 180.887 19.6587 190.098 24.115 191.34C37.9221 195.18 52.0901 188.27 59.7083 176.912C67.3217 165.56 66.3928 150.771 62.899 144.024C62.8557 143.942 62.8075 143.86 62.7642 143.773C64.155 142.95 65.5747 142.113 66.98 141.285C69.7231 139.673 72.4181 138.172 74.7522 136.901C73.4432 140.482 72.4855 144.779 71.9898 150.982C71.4027 158.269 74.3912 167.687 78.299 171.392C80.0219 173.024 82.0912 173.062 83.4002 173.062C87.948 173.062 90.0222 169.28 92.3082 164.804C95.109 159.318 97.5971 152.927 97.5971 152.927C97.5971 152.927 94.4786 170.184 102.977 170.184C106.077 170.184 109.19 166.166 110.581 164.121C110.586 164.145 110.586 164.154 110.586 164.154C110.586 164.154 110.668 164.02 110.827 163.755C111.149 163.264 111.332 162.951 111.332 162.951C111.332 162.951 111.337 162.917 111.346 162.86C112.593 160.699 115.355 155.771 119.494 147.643C124.845 137.142 129.976 123.984 129.976 123.984C129.976 123.984 130.452 127.199 132.016 132.522C132.935 135.65 134.889 139.11 136.434 142.431C135.192 144.154 134.432 145.14 134.432 145.14C134.432 145.14 134.437 145.159 134.451 145.193C133.46 146.512 132.348 147.931 131.184 149.317C126.958 154.346 121.929 160.093 121.255 161.748C120.461 163.702 120.649 165.136 122.184 166.296C123.305 167.138 125.298 167.273 127.382 167.133C131.179 166.878 133.845 165.935 135.163 165.362C137.218 164.636 139.61 163.495 141.853 161.844C145.996 158.798 148.494 154.443 148.253 148.668C148.119 145.487 147.108 142.334 145.823 139.36C146.199 138.821 146.574 138.273 146.954 137.724C153.485 128.176 158.552 117.685 158.552 117.685C158.552 117.685 159.029 120.9 160.593 126.222C161.382 128.912 162.946 131.853 164.351 134.731C158.211 139.721 154.404 145.52 153.08 149.322C150.636 156.358 152.551 159.544 156.141 160.271C157.768 160.598 160.068 159.852 161.796 159.12C163.947 158.408 166.531 157.219 168.947 155.444C173.091 152.397 177.076 148.133 176.835 142.363C176.724 139.736 176.012 137.127 175.045 134.625C180.252 132.454 186.989 131.251 195.575 132.252C213.992 134.403 217.602 145.9 216.913 150.713C216.22 155.525 212.361 158.172 211.066 158.971C209.776 159.77 209.382 160.049 209.488 160.641C209.647 161.503 210.243 161.474 211.345 161.286C212.861 161.031 221.014 157.373 221.365 148.49C221.803 137.199 210.999 124.812 191.86 124.913ZM49.9052 172.769C43.803 179.424 35.2848 181.936 31.6273 179.819C27.6811 177.533 29.2452 167.735 36.7286 160.67C41.2908 156.368 47.1813 152.402 51.0891 149.962C51.9794 149.428 53.2836 148.644 54.8717 147.691C55.1364 147.542 55.2856 147.46 55.2856 147.46L55.2808 147.45C55.5888 147.267 55.9016 147.08 56.224 146.882C58.9527 156.936 56.3107 165.786 49.9052 172.769ZM94.3487 142.561C92.2263 147.739 87.7796 160.992 85.0702 160.28C82.7457 159.669 81.3308 149.596 84.6082 139.683C86.254 134.692 89.7768 128.729 91.8462 126.415C95.1764 122.69 98.8435 121.472 99.7338 122.983C100.865 124.908 95.6817 139.312 94.3487 142.561ZM131.063 160.078C130.163 160.55 129.336 160.843 128.955 160.617C128.671 160.449 129.326 159.828 129.326 159.828C129.326 159.828 133.917 154.885 135.727 152.638C136.78 151.329 137.998 149.775 139.326 148.042C139.336 148.215 139.341 148.389 139.341 148.557C139.331 154.476 133.614 158.471 131.063 160.078ZM159.346 153.629C158.673 153.153 158.788 151.608 160.997 146.791C161.863 144.899 163.846 141.718 167.282 138.677C167.682 139.928 167.922 141.126 167.917 142.243C167.874 149.693 162.561 152.474 159.346 153.629Z" fill="#F06292"/>
</g>
<defs>
<filter id="filter0_d" x="-4" y="0" width="239" height="239" filterUnits="userSpaceOnUse" color-interpolation-filters="sRGB">
<feFlood flood-opacity="0" result="BackgroundImageFix"/>
<feColorMatrix in="SourceAlpha" type="matrix" values="0 0 0 0 0 0 0 0 0 0 0 0 0 0 0 0 0 0 127 0"/>
<feOffset dy="4"/>
<feGaussianBlur stdDeviation="2"/>
<feColorMatrix type="matrix" values="0 0 0 0 0 0 0 0 0 0 0 0 0 0 0 0 0 0 0.25 0"/>
<feBlend mode="normal" in2="BackgroundImageFix" result="effect1_dropShadow"/>
<feBlend mode="normal" in="SourceGraphic" in2="effect1_dropShadow" result="shape"/>
</filter>
</defs>
</svg>
