<svg width="231" height="231" viewBox="0 0 231 231" fill="none" xmlns="http://www.w3.org/2000/svg">
<g filter="url(#filter0_d)">
<path d="M197.312 24.0625H33.6875L48.125 187.688L115.5 206.938L182.875 187.688L197.312 24.0625Z" fill="#E65100"/>
<path d="M115.5 38.5V192.019L169.4 176.619L181.431 38.5H115.5Z" fill="#FF6D00"/>
<path d="M115.5 120.312V101.062H156.887L153.519 156.406L115.5 168.919V148.706L135.231 141.969L136.675 120.312H115.5ZM158.331 81.8125L159.775 62.5625H115.5V81.8125H158.331Z" fill="white"/>
<path d="M115.5 148.706V168.919L77.4814 156.406L75.5564 129.938H94.8064L95.7689 141.969L115.5 148.706ZM91.9189 81.8125H115.5V62.5625H71.7064L75.0751 120.312H115.5V101.062H93.3626L91.9189 81.8125Z" fill="#EEEEEE"/>
</g>
<defs>
<filter id="filter0_d" x="-4" y="0" width="239" height="239" filterUnits="userSpaceOnUse" color-interpolation-filters="sRGB">
<feFlood flood-opacity="0" result="BackgroundImageFix"/>
<feColorMatrix in="SourceAlpha" type="matrix" values="0 0 0 0 0 0 0 0 0 0 0 0 0 0 0 0 0 0 127 0"/>
<feOffset dy="4"/>
<feGaussianBlur stdDeviation="2"/>
<feColorMatrix type="matrix" values="0 0 0 0 0 0 0 0 0 0 0 0 0 0 0 0 0 0 0.25 0"/>
<feBlend mode="normal" in2="BackgroundImageFix" result="effect1_dropShadow"/>
<feBlend mode="normal" in="SourceGraphic" in2="effect1_dropShadow" result="shape"/>
</filter>
</defs>
</svg>
