<svg width="231" height="231" viewBox="0 0 231 231" fill="none" xmlns="http://www.w3.org/2000/svg">
<g clip-path="url(#clip0)">
<g filter="url(#filter0_d)">
<path d="M0.009625 168.635H9.24963V134.538L22.0846 163.688C23.6679 167.321 25.8335 168.606 30.0829 168.606C34.3324 168.606 36.4114 167.321 37.9947 163.688L50.8296 135.284V168.635H60.0696V133.706C60.0696 130.351 58.7366 128.725 55.9838 127.887C49.4051 125.818 44.9873 127.603 42.9901 132.084L29.8279 161.729L17.0796 132.084C15.1642 127.608 10.6693 125.818 4.08581 127.887C1.33306 128.725 0 130.347 0 133.701V168.63H0.009625V168.635Z" fill="#00796B"/>
</g>
<g filter="url(#filter1_d)">
<path d="M64.6845 140.915H73.9245V160.429C73.8523 161.392 74.2325 163.947 78.6889 164.015C80.9604 164.053 92.265 164.015 92.4045 164.015V140.915H101.645C101.683 140.915 101.645 169.636 101.645 169.756C101.693 176.84 92.8473 177.754 88.7807 177.875H64.6893V173.255C64.7374 173.255 87.7268 173.26 87.7941 173.255C93.0301 172.701 92.4093 169.819 92.4093 168.943V168.635H77.9141C69.8772 168.563 64.7519 165.021 64.6941 160.983C64.6845 160.608 64.8674 141.088 64.6845 140.915Z" fill="#00796B"/>
</g>
<g filter="url(#filter2_d)">
<path d="M106.264 168.635H129.398C132.43 168.635 135.375 168 137.714 166.902C141.612 165.112 143.22 162.691 143.22 159.51V152.927C143.22 145.824 134.413 145.535 129.36 145.535H120.12C116.486 145.535 115.933 143.34 115.5 140.915V136.295C115.933 134.447 116.741 131.964 119.942 131.675C123.662 131.675 143.215 131.675 143.215 131.675V127.055H121.241C117.607 127.055 106.255 127.488 106.255 136.295V142.007C106.255 146.05 109.806 149.342 117.516 150.15C118.382 150.208 119.249 150.266 120.11 150.266C120.11 150.266 129.09 150.092 129.35 150.15C134.547 150.15 133.97 154.193 133.97 154.77V159.39C133.97 160.025 133.826 164.01 129.297 164.01C128.951 164.01 106.25 164.01 106.25 164.01V168.635H106.264Z" fill="#F57F17"/>
</g>
<g filter="url(#filter3_d)">
<path d="M194.04 159.198C194.04 164.775 197.192 167.903 205.552 168.529C206.331 168.582 207.116 168.63 207.9 168.63H231V164.01H209.657C204.888 164.01 203.28 162.008 203.28 159.145V127.05H194.04V159.198Z" fill="#F57F17"/>
</g>
<g filter="url(#filter4_d)">
<path d="M147.763 159.395V136.295C147.763 131.386 150.17 127.998 156.984 127.055H160.218H176.807H179.333C186.148 127.998 189.343 131.381 189.343 136.295V159.308C189.343 163.288 188.309 165.425 184.935 166.811L192.096 173.25H181.701L176.552 168.63H170.502L160.223 168.688C158.736 168.688 157.167 168.481 155.444 168.009C150.275 166.599 147.763 163.885 147.763 159.395ZM157.003 159.395C157.475 161.642 159.28 164.015 162.49 164.015H171.46L166.32 159.395H176.788L179.285 161.715C179.285 161.715 180.18 160.983 180.18 159.395C180.18 157.807 180.103 136.295 180.103 136.295C179.632 134.206 177.514 131.675 174.386 131.675H162.494C158.89 131.675 157.008 134.312 157.008 136.767L157.003 159.395Z" fill="#F57F17"/>
</g>
<g filter="url(#filter5_d)">
<path d="M222.332 122.184C217.371 122.05 213.583 122.512 210.345 123.874C209.425 124.263 207.958 124.273 207.804 125.428C208.309 125.957 208.386 126.751 208.79 127.401C209.56 128.652 210.869 130.332 212.034 131.208C213.309 132.17 214.623 133.2 215.985 134.033C218.41 135.51 221.12 136.357 223.459 137.839C224.835 138.71 226.202 139.817 227.549 140.799C228.213 141.29 228.656 142.046 229.522 142.354C229.522 142.305 229.522 142.262 229.522 142.214C229.07 141.636 228.95 140.842 228.536 140.236C227.925 139.625 227.313 139.014 226.702 138.402C224.912 136.025 222.631 133.932 220.215 132.199C218.285 130.813 213.968 128.941 213.16 126.698C213.112 126.65 213.068 126.607 213.015 126.554C214.382 126.4 215.985 125.904 217.246 125.568C219.368 125 221.259 125.149 223.449 124.581C224.436 124.297 225.422 124.018 226.409 123.734C226.409 123.546 226.409 123.359 226.409 123.171C225.302 122.035 224.508 120.534 223.305 119.504C220.143 116.814 216.697 114.128 213.15 111.886C211.182 110.644 208.747 109.835 206.663 108.782C205.96 108.425 204.728 108.243 204.266 107.655C203.169 106.26 202.577 104.484 201.73 102.862C199.959 99.4549 198.217 95.73 196.653 92.1447C195.58 89.7 194.882 87.2841 193.549 85.0896C187.143 74.5598 180.247 68.2025 169.573 61.9559C167.302 60.6277 164.563 60.1031 161.671 59.4149C160.116 59.3235 158.567 59.2272 157.012 59.131C156.064 58.7315 155.083 57.5765 154.187 57.0135C150.65 54.7757 141.574 49.915 138.956 56.306C137.3 60.3389 141.43 64.2755 142.907 66.3208C143.942 67.755 145.27 69.3623 146.011 70.9793C146.497 72.0381 146.584 73.1017 146.998 74.223C148.023 76.9853 149.644 80.1327 150.973 82.6882C151.642 83.9827 152.383 85.3398 153.23 86.4948C153.75 87.2023 154.64 87.5151 154.784 88.6123C153.913 89.8299 153.865 91.7212 153.374 93.2708C151.17 100.225 152.003 108.863 155.208 114.003C156.189 115.582 158.509 118.97 161.695 117.67C164.481 116.534 163.861 113.017 164.655 109.912C164.833 109.21 164.722 108.695 165.078 108.223C165.078 108.271 165.078 108.315 165.078 108.368C165.925 110.057 166.767 111.756 167.619 113.445C169.501 116.472 172.836 119.634 175.656 121.77C177.119 122.877 178.274 124.793 180.17 125.438C180.17 125.389 180.17 125.346 180.17 125.293C180.122 125.293 180.079 125.293 180.026 125.293C179.66 124.721 179.083 124.485 178.616 124.023C177.514 122.94 176.282 121.597 175.372 120.356C172.802 116.867 170.531 113.045 168.461 109.07C167.475 107.169 166.613 105.081 165.781 103.146C165.458 102.4 165.463 101.274 164.794 100.889C163.88 102.304 162.542 103.449 161.835 105.119C160.708 107.79 160.559 111.053 160.145 114.427C159.895 114.513 160.006 114.455 159.861 114.566C157.898 114.09 157.205 112.073 156.473 110.336C154.625 105.947 154.284 98.8822 155.91 93.8339C156.329 92.5249 158.23 88.4102 157.465 87.2023C157.099 85.9944 155.886 85.2965 155.213 84.3773C154.37 83.2416 153.538 81.7401 152.955 80.4263C151.444 77.0046 150.01 73.0247 148.417 69.5645C147.657 67.909 146.372 66.239 145.313 64.7712C144.144 63.1446 142.83 61.9463 141.925 59.978C141.603 59.2802 141.165 58.1588 141.641 57.437C141.795 56.9509 142.007 56.7488 142.488 56.59C143.306 55.9547 145.583 56.7969 146.439 57.153C148.701 58.0915 150.588 58.9866 152.503 60.2571C153.422 60.8683 154.351 62.0473 155.463 62.3746C155.886 62.3746 156.31 62.3746 156.733 62.3746C158.721 62.8318 160.944 62.519 162.797 63.082C166.079 64.0782 169.015 65.6278 171.681 67.3122C179.814 72.4472 186.46 79.7525 191.008 88.4728C191.739 89.878 192.057 91.2159 192.697 92.703C193.996 95.706 195.638 98.7956 196.927 101.731C198.217 104.662 199.478 107.617 201.302 110.057C202.264 111.337 205.97 112.025 207.65 112.737C208.829 113.238 210.763 113.753 211.88 114.427C214.016 115.716 216.086 117.252 218.083 118.657C219.103 119.364 222.178 120.909 222.332 122.184Z" fill="#00796B"/>
</g>
<g filter="url(#filter6_d)">
<path d="M159.284 68.4484C158.25 68.4292 157.518 68.5591 156.743 68.7324C156.743 68.7805 156.743 68.8238 156.743 68.8767C156.792 68.8767 156.835 68.8767 156.888 68.8767C157.383 69.8874 158.25 70.5467 158.861 71.4177C159.333 72.4043 159.799 73.3909 160.271 74.3774C160.319 74.3293 160.362 74.286 160.411 74.2379C161.282 73.6219 161.686 72.6401 161.681 71.1338C161.33 70.7632 161.277 70.3012 160.974 69.8633C160.569 69.2714 159.79 68.9393 159.284 68.4484Z" fill="#00796B"/>
</g>
</g>
<defs>
<filter id="filter0_d" x="-4" y="127.03" width="68.0696" height="49.6045" filterUnits="userSpaceOnUse" color-interpolation-filters="sRGB">
<feFlood flood-opacity="0" result="BackgroundImageFix"/>
<feColorMatrix in="SourceAlpha" type="matrix" values="0 0 0 0 0 0 0 0 0 0 0 0 0 0 0 0 0 0 127 0" result="hardAlpha"/>
<feOffset dy="4"/>
<feGaussianBlur stdDeviation="2"/>
<feComposite in2="hardAlpha" operator="out"/>
<feColorMatrix type="matrix" values="0 0 0 0 0 0 0 0 0 0 0 0 0 0 0 0 0 0 0.25 0"/>
<feBlend mode="normal" in2="BackgroundImageFix" result="effect1_dropShadow"/>
<feBlend mode="normal" in="SourceGraphic" in2="effect1_dropShadow" result="shape"/>
</filter>
<filter id="filter1_d" x="60.6845" y="140.915" width="44.9771" height="44.96" filterUnits="userSpaceOnUse" color-interpolation-filters="sRGB">
<feFlood flood-opacity="0" result="BackgroundImageFix"/>
<feColorMatrix in="SourceAlpha" type="matrix" values="0 0 0 0 0 0 0 0 0 0 0 0 0 0 0 0 0 0 127 0" result="hardAlpha"/>
<feOffset dy="4"/>
<feGaussianBlur stdDeviation="2"/>
<feComposite in2="hardAlpha" operator="out"/>
<feColorMatrix type="matrix" values="0 0 0 0 0 0 0 0 0 0 0 0 0 0 0 0 0 0 0.25 0"/>
<feBlend mode="normal" in2="BackgroundImageFix" result="effect1_dropShadow"/>
<feBlend mode="normal" in="SourceGraphic" in2="effect1_dropShadow" result="shape"/>
</filter>
<filter id="filter2_d" x="102.25" y="127.055" width="44.9696" height="49.58" filterUnits="userSpaceOnUse" color-interpolation-filters="sRGB">
<feFlood flood-opacity="0" result="BackgroundImageFix"/>
<feColorMatrix in="SourceAlpha" type="matrix" values="0 0 0 0 0 0 0 0 0 0 0 0 0 0 0 0 0 0 127 0" result="hardAlpha"/>
<feOffset dy="4"/>
<feGaussianBlur stdDeviation="2"/>
<feComposite in2="hardAlpha" operator="out"/>
<feColorMatrix type="matrix" values="0 0 0 0 0 0 0 0 0 0 0 0 0 0 0 0 0 0 0.25 0"/>
<feBlend mode="normal" in2="BackgroundImageFix" result="effect1_dropShadow"/>
<feBlend mode="normal" in="SourceGraphic" in2="effect1_dropShadow" result="shape"/>
</filter>
<filter id="filter3_d" x="190.04" y="127.05" width="44.96" height="49.58" filterUnits="userSpaceOnUse" color-interpolation-filters="sRGB">
<feFlood flood-opacity="0" result="BackgroundImageFix"/>
<feColorMatrix in="SourceAlpha" type="matrix" values="0 0 0 0 0 0 0 0 0 0 0 0 0 0 0 0 0 0 127 0" result="hardAlpha"/>
<feOffset dy="4"/>
<feGaussianBlur stdDeviation="2"/>
<feComposite in2="hardAlpha" operator="out"/>
<feColorMatrix type="matrix" values="0 0 0 0 0 0 0 0 0 0 0 0 0 0 0 0 0 0 0.25 0"/>
<feBlend mode="normal" in2="BackgroundImageFix" result="effect1_dropShadow"/>
<feBlend mode="normal" in="SourceGraphic" in2="effect1_dropShadow" result="shape"/>
</filter>
<filter id="filter4_d" x="143.763" y="127.055" width="52.3327" height="54.1952" filterUnits="userSpaceOnUse" color-interpolation-filters="sRGB">
<feFlood flood-opacity="0" result="BackgroundImageFix"/>
<feColorMatrix in="SourceAlpha" type="matrix" values="0 0 0 0 0 0 0 0 0 0 0 0 0 0 0 0 0 0 127 0" result="hardAlpha"/>
<feOffset dy="4"/>
<feGaussianBlur stdDeviation="2"/>
<feComposite in2="hardAlpha" operator="out"/>
<feColorMatrix type="matrix" values="0 0 0 0 0 0 0 0 0 0 0 0 0 0 0 0 0 0 0.25 0"/>
<feBlend mode="normal" in2="BackgroundImageFix" result="effect1_dropShadow"/>
<feBlend mode="normal" in="SourceGraphic" in2="effect1_dropShadow" result="shape"/>
</filter>
<filter id="filter5_d" x="134.571" y="53.1301" width="98.9514" height="97.2234" filterUnits="userSpaceOnUse" color-interpolation-filters="sRGB">
<feFlood flood-opacity="0" result="BackgroundImageFix"/>
<feColorMatrix in="SourceAlpha" type="matrix" values="0 0 0 0 0 0 0 0 0 0 0 0 0 0 0 0 0 0 127 0" result="hardAlpha"/>
<feOffset dy="4"/>
<feGaussianBlur stdDeviation="2"/>
<feComposite in2="hardAlpha" operator="out"/>
<feColorMatrix type="matrix" values="0 0 0 0 0 0 0 0 0 0 0 0 0 0 0 0 0 0 0.25 0"/>
<feBlend mode="normal" in2="BackgroundImageFix" result="effect1_dropShadow"/>
<feBlend mode="normal" in="SourceGraphic" in2="effect1_dropShadow" result="shape"/>
</filter>
<filter id="filter6_d" x="152.743" y="68.4465" width="12.9377" height="13.9309" filterUnits="userSpaceOnUse" color-interpolation-filters="sRGB">
<feFlood flood-opacity="0" result="BackgroundImageFix"/>
<feColorMatrix in="SourceAlpha" type="matrix" values="0 0 0 0 0 0 0 0 0 0 0 0 0 0 0 0 0 0 127 0" result="hardAlpha"/>
<feOffset dy="4"/>
<feGaussianBlur stdDeviation="2"/>
<feComposite in2="hardAlpha" operator="out"/>
<feColorMatrix type="matrix" values="0 0 0 0 0 0 0 0 0 0 0 0 0 0 0 0 0 0 0.25 0"/>
<feBlend mode="normal" in2="BackgroundImageFix" result="effect1_dropShadow"/>
<feBlend mode="normal" in="SourceGraphic" in2="effect1_dropShadow" result="shape"/>
</filter>
<clipPath id="clip0">
<rect width="231" height="231" fill="white"/>
</clipPath>
</defs>
</svg>
