<svg width="25" height="25" viewBox="0 0 25 25" fill="none" xmlns="http://www.w3.org/2000/svg">
<path d="M13.4619 0C10.9083 0 8.60885 0.558578 6.60343 1.68836C4.59794 2.816 3.03765 4.42672 1.95617 6.48045C0.874696 8.53004 0.339172 10.8652 0.339172 13.4544C0.339172 17.0181 1.35558 19.8929 3.41559 21.9424C5.4756 23.992 8.3757 25 11.9876 25C14.4089 25 16.595 24.5821 18.5311 23.7358C18.7411 23.6434 18.8881 23.4208 18.8881 23.1919V21.2683C18.8881 21.0773 18.7894 20.8883 18.6319 20.779C18.4744 20.672 18.2623 20.6468 18.0838 20.714C15.9608 21.5225 13.9322 21.9194 11.9876 21.9194C9.17158 21.9194 7.11785 21.1739 5.69619 19.7228C4.27032 18.2718 3.53531 16.1928 3.53531 13.3537C3.53531 11.26 3.93849 9.44563 4.73016 7.88534C5.51976 6.32719 6.64325 5.15119 8.1384 4.31542C9.62935 3.47753 11.3933 3.05123 13.4618 3.05123C15.0872 3.05123 16.4941 3.38513 17.7163 4.04452C18.9385 4.70184 19.8604 5.6195 20.5219 6.83747C21.1834 8.05123 21.5215 9.47503 21.5215 11.1403C21.5215 12.732 21.2548 13.9857 20.7655 14.9055C20.2762 15.8274 19.7932 16.1466 19.1485 16.1466C18.6403 16.1466 18.3883 16.0164 18.1804 15.7392C17.9725 15.462 17.8171 14.9476 17.8171 14.1642V13.845L18.1783 7.07684C18.1909 6.81643 18.0124 6.55815 17.7646 6.48045C17.0632 6.25578 16.2842 6.08355 15.4274 5.95969C14.5769 5.83576 13.8062 5.77276 13.1153 5.77276C11.1308 5.77276 9.44035 6.45947 8.19299 7.80765C6.9477 9.15375 6.3282 10.924 6.3282 13.0071C6.3282 14.7984 6.76712 16.2957 7.68899 17.4129C8.613 18.5342 9.95484 19.1117 11.5361 19.1117C12.6155 19.1117 13.594 18.845 14.4172 18.3054C14.896 17.9883 15.3055 17.5893 15.6541 17.1315C15.8599 17.5368 16.135 17.9022 16.4857 18.2109C17.1618 18.8073 18.0249 19.1118 18.9741 19.1118C20.1018 19.1118 21.1413 18.7443 22.0106 18.0387C22.8758 17.3331 23.5331 16.3524 23.9867 15.1387C24.4382 13.927 24.6608 12.5998 24.6608 11.1697C24.6608 8.99207 24.1988 7.03702 23.2643 5.33604C22.33 3.635 20.9881 2.30365 19.2787 1.37964C17.5694 0.455693 15.6206 0 13.4619 0ZM13.1154 8.73794C13.7075 8.73794 14.2578 8.79252 14.768 8.89541L14.5917 12.1755V12.1776C14.5098 13.6224 14.201 14.6471 13.7601 15.2624C13.317 15.8777 12.7773 16.1465 11.9268 16.1465C11.1163 16.1465 10.6375 15.9218 10.2826 15.4598C9.92977 14.9999 9.69881 14.2124 9.69881 13.0637C9.69881 11.6105 10.0285 10.5564 10.6291 9.82137C11.2296 9.08654 11.9982 8.73794 13.1154 8.73794Z" fill="white"/>
</svg>
