<svg width="25" height="25" viewBox="0 0 25 25" fill="none" xmlns="http://www.w3.org/2000/svg">
<path d="M19.7917 18.75H5.20835C4.63306 18.75 4.16669 19.2164 4.16669 19.7917C4.16669 20.367 4.63306 20.8333 5.20835 20.8333H19.7917C20.367 20.8333 20.8334 20.367 20.8334 19.7917C20.8334 19.2164 20.367 18.75 19.7917 18.75Z" fill="white"/>
<path d="M4.16669 17.7085V19.7918C4.16669 20.3671 4.63306 20.8335 5.20835 20.8335C5.78365 20.8335 6.25002 20.3671 6.25002 19.7918V17.7085C6.25002 17.1332 5.78365 16.6668 5.20835 16.6668C4.63306 16.6668 4.16669 17.1332 4.16669 17.7085Z" fill="white"/>
<path d="M18.75 17.7085V19.7918C18.75 20.3671 19.2164 20.8335 19.7917 20.8335C20.367 20.8335 20.8333 20.3671 20.8333 19.7918V17.7085C20.8333 17.1332 20.367 16.6668 19.7917 16.6668C19.2164 16.6668 18.75 17.1332 18.75 17.7085Z" fill="white"/>
<path d="M12.5 15.6248C12.2841 15.6265 12.0729 15.561 11.8959 15.4373L7.7292 12.4998C7.50463 12.3405 7.35226 12.0988 7.30541 11.8275C7.25857 11.5561 7.32105 11.2773 7.4792 11.0519C7.55814 10.9393 7.65862 10.8434 7.77483 10.7697C7.89104 10.6961 8.02068 10.6463 8.15626 10.623C8.29185 10.5998 8.4307 10.6036 8.56479 10.6343C8.69889 10.665 8.82557 10.722 8.93753 10.8019L12.5 13.2915L16.0417 10.6248C16.2627 10.4591 16.5405 10.3879 16.814 10.427C17.0875 10.466 17.3343 10.6122 17.5 10.8332C17.6658 11.0542 17.737 11.332 17.6979 11.6055C17.6588 11.879 17.5127 12.1257 17.2917 12.2915L13.125 15.4165C12.9447 15.5517 12.7254 15.6248 12.5 15.6248V15.6248Z" fill="white"/>
<path d="M12.5 13.5417C12.2237 13.5417 11.9588 13.4319 11.7634 13.2366C11.5681 13.0412 11.4583 12.7763 11.4583 12.5V4.16667C11.4583 3.8904 11.5681 3.62545 11.7634 3.4301C11.9588 3.23475 12.2237 3.125 12.5 3.125C12.7762 3.125 13.0412 3.23475 13.2365 3.4301C13.4319 3.62545 13.5416 3.8904 13.5416 4.16667V12.5C13.5416 12.7763 13.4319 13.0412 13.2365 13.2366C13.0412 13.4319 12.7762 13.5417 12.5 13.5417Z" fill="white"/>
</svg>
