<svg width="25" height="25" viewBox="0 0 25 25" fill="none" xmlns="http://www.w3.org/2000/svg">
<path d="M20 0H5C2.23869 0 0 2.23869 0 5V20C0 22.7613 2.23851 25 5 25H19.9998C22.7611 25 24.9998 22.7613 24.9998 20V5C24.9998 2.23869 22.7613 0 20 0V0ZM22.4999 18.75C22.4999 20.821 20.821 22.4999 18.75 22.4999H6.25014C4.17897 22.4999 2.50009 20.821 2.50009 18.75V6.24995C2.50009 4.17879 4.17897 2.49991 6.25014 2.49991H18.75C20.821 2.49991 22.4999 4.17879 22.4999 6.24995V18.75ZM19.6945 16.0538L15.9957 14.1777L15.7124 14.0773C15.5347 14.0773 15.3901 14.15 15.2793 14.2949L13.6965 15.7355C13.4965 15.9364 13.2741 15.9645 13.0298 15.8192C12.2855 15.3613 11.5804 14.7975 10.9138 14.1274C10.2807 13.5021 9.72511 12.793 9.24769 12.0001C9.10332 11.7655 9.12538 11.5423 9.31441 11.33L10.8972 9.75555C11.0305 9.62157 11.097 9.47665 11.097 9.32006C11.097 9.23074 11.0691 9.1303 11.0137 9.01837L8.98119 5.29986C8.87017 5.09898 8.70885 4.99836 8.49794 4.99836C7.37595 5.09898 6.54289 5.42291 5.99876 5.96996C5.48762 6.48365 5.17664 7.14827 5.06562 7.96329C4.95461 8.77866 5.02388 9.64964 5.27398 10.5764C5.5239 11.5035 5.94881 12.4691 6.54854 13.4742C7.14827 14.4792 7.88144 15.4229 8.74786 16.305C9.91414 17.4777 11.1608 18.3878 12.4882 19.0353C13.8155 19.6832 15.0512 20.0069 16.1955 20.0069C17.3506 20.0069 18.267 19.6664 18.9445 18.9852C19.5665 18.3711 19.9163 17.5613 19.9942 16.5564C19.9943 16.3331 19.8943 16.1656 19.6945 16.0538V16.0538Z" fill="white"/>
</svg>
