<svg width="39" height="39" viewBox="0 0 39 39" fill="none" xmlns="http://www.w3.org/2000/svg">
<g clip-path="url(#clip0)">
<path d="M38.6953 10.0547C37.8848 15.0881 35.8891 27.4584 35.6484 28.9453H10.9688C11.0632 28.3755 10.5879 31.3188 14.0156 10.0547H38.6953Z" fill="url(#paint0_linear)"/>
<path d="M38.6953 10.0547C26.2976 20.0484 26.9953 19.6005 26.1422 19.8991C25.4641 20.1381 24.731 20.1733 24.0331 20.0006C23.3352 19.8279 22.7031 19.4548 22.2148 18.9272L14.0156 10.0547H15.728C23.2568 18.202 22.7937 17.8547 23.7473 18.2812C24.3646 18.551 25.0439 18.6464 25.7116 18.5573C26.3793 18.4681 27.0098 18.1977 27.5346 17.7755L37.1109 10.0547H38.6953Z" fill="#C7CDD8"/>
<path d="M8.83594 26.2031H8.22656C8.14575 26.2031 8.06826 26.171 8.01112 26.1139C7.95398 26.0567 7.92188 25.9792 7.92188 25.8984C7.92188 25.8176 7.95398 25.7401 8.01112 25.683C8.06826 25.6259 8.14575 25.5938 8.22656 25.5938H8.83594C8.91675 25.5938 8.99424 25.6259 9.05138 25.683C9.10852 25.7401 9.14062 25.8176 9.14062 25.8984C9.14062 25.9792 9.10852 26.0567 9.05138 26.1139C8.99424 26.171 8.91675 26.2031 8.83594 26.2031Z" fill="#FFE5C3"/>
<path d="M35.8465 27.7266C35.685 28.7259 35.7307 28.4456 35.6484 28.9453H10.9688C11.0662 28.3573 11.0205 28.6406 11.1668 27.7266H35.8465Z" fill="#C7CDD8"/>
<path d="M38.936 9.85971C38.7898 9.6769 40.2462 9.74393 14.0156 9.74393C13.9391 9.74337 13.8651 9.77165 13.8085 9.82315C13.6744 9.94503 10.6641 28.8753 10.6641 28.9057C10.6584 28.9686 10.6723 29.0316 10.704 29.0862C10.7356 29.1408 10.7834 29.1842 10.8408 29.2104C10.8926 29.2348 35.7003 29.3018 35.8556 29.1617C35.9081 29.1128 35.9442 29.049 35.9592 28.9789C39.2011 8.86643 39.0701 10.0212 38.936 9.85971ZM35.4443 28.2567L27.5042 19.4726L38.2596 10.8042L35.4443 28.2567ZM14.2198 10.7342C22.7845 19.9997 21.9375 19.0765 22.1417 19.2867L11.4075 28.1775L14.2198 10.7342ZM27.0349 19.0521C26.3692 19.5877 25.5252 19.8509 24.6731 19.7887C23.821 19.7265 23.0242 19.3435 22.4433 18.717L14.7256 10.3594H37.8148L27.0349 19.0521ZM22.6261 19.695C23.26 20.1439 24.0118 20.3965 24.7881 20.4214C25.5644 20.4463 26.3309 20.2425 26.9923 19.8352L34.9477 28.6407H11.831L22.6261 19.695Z" fill="#47566A"/>
<path d="M7.3125 18.8906H0.304688C0.223879 18.8906 0.146381 18.9227 0.0892409 18.9799C0.0321009 19.037 0 19.1145 0 19.1953C0 19.2761 0.0321009 19.3536 0.0892409 19.4108C0.146381 19.4679 0.223879 19.5 0.304688 19.5H7.3125C7.39331 19.5 7.47081 19.4679 7.52795 19.4108C7.58509 19.3536 7.61719 19.2761 7.61719 19.1953C7.61719 19.1145 7.58509 19.037 7.52795 18.9799C7.47081 18.9227 7.39331 18.8906 7.3125 18.8906Z" fill="#47566A"/>
<path d="M11.2734 12.4922H5.78906C5.70825 12.4922 5.63076 12.5243 5.57362 12.5814C5.51648 12.6386 5.48438 12.7161 5.48438 12.7969C5.48438 12.8777 5.51648 12.9552 5.57362 13.0123C5.63076 13.0695 5.70825 13.1016 5.78906 13.1016H11.2734C11.3542 13.1016 11.4317 13.0695 11.4889 13.0123C11.546 12.9552 11.5781 12.8777 11.5781 12.7969C11.5781 12.7161 11.546 12.6386 11.4889 12.5814C11.4317 12.5243 11.3542 12.4922 11.2734 12.4922Z" fill="#47566A"/>
<path d="M3.65625 7.00781H20.7188C20.7996 7.00781 20.8771 6.97571 20.9342 6.91857C20.9913 6.86143 21.0234 6.78393 21.0234 6.70312C21.0234 6.62232 20.9913 6.54482 20.9342 6.48768C20.8771 6.43054 20.7996 6.39844 20.7188 6.39844H3.65625C3.57544 6.39844 3.49794 6.43054 3.4408 6.48768C3.38366 6.54482 3.35156 6.62232 3.35156 6.70312C3.35156 6.78393 3.38366 6.86143 3.4408 6.91857C3.49794 6.97571 3.57544 7.00781 3.65625 7.00781V7.00781Z" fill="#47566A"/>
<path d="M18.5859 31.9922H16.1484C16.0676 31.9922 15.9901 32.0243 15.933 32.0814C15.8759 32.1386 15.8438 32.2161 15.8438 32.2969C15.8438 32.3777 15.8759 32.4552 15.933 32.5123C15.9901 32.5695 16.0676 32.6016 16.1484 32.6016H18.5859C18.6667 32.6016 18.7442 32.5695 18.8014 32.5123C18.8585 32.4552 18.8906 32.3777 18.8906 32.2969C18.8906 32.2161 18.8585 32.1386 18.8014 32.0814C18.7442 32.0243 18.6667 31.9922 18.5859 31.9922Z" fill="#47566A"/>
<path d="M14.3203 31.9922H3.65625C3.57544 31.9922 3.49794 32.0243 3.4408 32.0814C3.38366 32.1386 3.35156 32.2161 3.35156 32.2969C3.35156 32.3777 3.38366 32.4552 3.4408 32.5123C3.49794 32.5695 3.57544 32.6016 3.65625 32.6016H14.3203C14.4011 32.6016 14.4786 32.5695 14.5358 32.5123C14.5929 32.4552 14.625 32.3777 14.625 32.2969C14.625 32.2161 14.5929 32.1386 14.5358 32.0814C14.4786 32.0243 14.4011 31.9922 14.3203 31.9922Z" fill="#47566A"/>
<path d="M6.09375 25.5938H2.13281C2.052 25.5938 1.97451 25.6259 1.91737 25.683C1.86023 25.7401 1.82812 25.8176 1.82812 25.8984C1.82812 25.9792 1.86023 26.0567 1.91737 26.1139C1.97451 26.171 2.052 26.2031 2.13281 26.2031H6.09375C6.17456 26.2031 6.25206 26.171 6.3092 26.1139C6.36634 26.0567 6.39844 25.9792 6.39844 25.8984C6.39844 25.8176 6.36634 25.7401 6.3092 25.683C6.25206 25.6259 6.17456 25.5938 6.09375 25.5938Z" fill="#47566A"/>
<path d="M7.92188 25.5938C7.84107 25.5938 7.76357 25.6259 7.70643 25.683C7.64929 25.7401 7.61719 25.8176 7.61719 25.8984C7.61719 25.9792 7.64929 26.0567 7.70643 26.1139C7.76357 26.171 7.84107 26.2031 7.92188 26.2031H8.53125C8.61206 26.2031 8.68956 26.171 8.7467 26.1139C8.80384 26.0567 8.83594 25.9792 8.83594 25.8984C8.83594 25.8176 8.80384 25.7401 8.7467 25.683C8.68956 25.6259 8.61206 25.5938 8.53125 25.5938H7.92188Z" fill="#47566A"/>
<path d="M3.65625 13.1016H4.26562C4.34643 13.1016 4.42393 13.0695 4.48107 13.0123C4.53821 12.9552 4.57031 12.8777 4.57031 12.7969C4.57031 12.7161 4.53821 12.6386 4.48107 12.5814C4.42393 12.5243 4.34643 12.4922 4.26562 12.4922H3.65625C3.57544 12.4922 3.49794 12.5243 3.4408 12.5814C3.38366 12.6386 3.35156 12.7161 3.35156 12.7969C3.35156 12.8777 3.38366 12.9552 3.4408 13.0123C3.49794 13.0695 3.57544 13.1016 3.65625 13.1016V13.1016Z" fill="#47566A"/>
</g>
<defs>
<linearGradient id="paint0_linear" x1="24.832" y1="28.9453" x2="24.832" y2="10.0547" gradientUnits="userSpaceOnUse">
<stop stop-color="#DDE1E8"/>
<stop offset="1" stop-color="#F3F4F5"/>
</linearGradient>
<clipPath id="clip0">
<rect width="39" height="39" fill="white"/>
</clipPath>
</defs>
</svg>
