<svg width="150" height="150" viewBox="0 0 150 150" fill="none" xmlns="http://www.w3.org/2000/svg">
<g filter="url(#filter0_d)">
<path d="M131.75 68.9375L80.8125 18C79.25 16.4375 77.0625 15.5 74.875 15.5C72.6875 15.5 70.5 16.4375 68.9375 18L58 28.9375L70.8125 41.75C72.0625 41.125 73.3125 40.8125 74.875 40.8125C80.1875 40.8125 84.25 44.875 84.25 50.1875C84.25 51.75 83.9375 53 83.3125 54.25L95.8125 66.75C97.0625 66.125 98.3125 65.8125 99.875 65.8125C105.188 65.8125 109.25 69.875 109.25 75.1875C109.25 80.5 105.188 84.5625 99.875 84.5625C94.5625 84.5625 90.5 80.5 90.5 75.1875C90.5 73.625 90.8125 72.375 91.4375 71.125L78.9375 58.625C78.625 58.625 78.3125 58.9375 78 58.9375V91.4375C81.75 92.6875 84.25 96.125 84.25 100.188C84.25 105.5 80.1875 109.563 74.875 109.563C69.5625 109.563 65.5 105.5 65.5 100.188C65.5 96.125 68 92.6875 71.75 91.4375V58.625C68 57.375 65.5 53.9375 65.5 49.875C65.5 48.3125 65.8125 47.0625 66.4375 45.8125L53.625 33L18 68.9375C16.4375 70.5 15.5 72.6875 15.5 74.875C15.5 77.0625 16.4375 79.25 18 80.8125L68.9375 131.75C70.5 133.313 72.6875 134.25 74.875 134.25C77.0625 134.25 79.25 133.313 80.8125 131.75L131.75 80.8125C133.313 79.25 134.25 77.0625 134.25 74.875C134.25 72.6875 133.313 70.5 131.75 68.9375Z" fill="#F4511E"/>
</g>
<defs>
<filter id="filter0_d" x="-4" y="0" width="158" height="158" filterUnits="userSpaceOnUse" color-interpolation-filters="sRGB">
<feFlood flood-opacity="0" result="BackgroundImageFix"/>
<feColorMatrix in="SourceAlpha" type="matrix" values="0 0 0 0 0 0 0 0 0 0 0 0 0 0 0 0 0 0 127 0" result="hardAlpha"/>
<feOffset dy="4"/>
<feGaussianBlur stdDeviation="2"/>
<feColorMatrix type="matrix" values="0 0 0 0 0 0 0 0 0 0 0 0 0 0 0 0 0 0 0.25 0"/>
<feBlend mode="normal" in2="BackgroundImageFix" result="effect1_dropShadow"/>
<feBlend mode="normal" in="SourceGraphic" in2="effect1_dropShadow" result="shape"/>
</filter>
</defs>
</svg>
