<svg width="150" height="150" viewBox="0 0 150 150" fill="none" xmlns="http://www.w3.org/2000/svg">
<g filter="url(#filter0_d)">
<path d="M128.125 15.625H21.875L31.25 121.875L75 134.375L118.75 121.875L128.125 15.625Z" fill="#0277BD"/>
<path d="M75 25V124.687L110 114.687L117.812 25H75Z" fill="#039BE5"/>
<path d="M103.437 40.625H75V53.125H90.3125L89.375 65.625H75V78.125H88.75L87.8125 92.1875L75 96.5625V109.688L99.6875 101.563L101.875 65.625L103.437 40.625Z" fill="white"/>
<path d="M75.0003 40.625V53.125H47.1877L46.2502 40.625H75.0003ZM60.6252 65.625L61.2502 78.125H75.0003V65.625H60.6252ZM61.8752 84.375H49.3752L50.3127 101.563L75.0003 109.688V96.5625L62.1877 92.1875L61.8752 84.375Z" fill="#EEEEEE"/>
</g>
<defs>
<filter id="filter0_d" x="-4" y="0" width="158" height="158" filterUnits="userSpaceOnUse" color-interpolation-filters="sRGB">
<feFlood flood-opacity="0" result="BackgroundImageFix"/>
<feColorMatrix in="SourceAlpha" type="matrix" values="0 0 0 0 0 0 0 0 0 0 0 0 0 0 0 0 0 0 127 0" result="hardAlpha"/>
<feOffset dy="4"/>
<feGaussianBlur stdDeviation="2"/>
<feColorMatrix type="matrix" values="0 0 0 0 0 0 0 0 0 0 0 0 0 0 0 0 0 0 0.25 0"/>
<feBlend mode="normal" in2="BackgroundImageFix" result="effect1_dropShadow"/>
<feBlend mode="normal" in="SourceGraphic" in2="effect1_dropShadow" result="shape"/>
</filter>
</defs>
</svg>
