<svg width="150" height="150" viewBox="0 0 150 150" fill="none" xmlns="http://www.w3.org/2000/svg">
<g clip-path="url(#clip0)">
<g filter="url(#filter0_d)">
<path d="M0.00625 109.503H6.00625V87.3624L14.3406 106.29C15.3688 108.65 16.775 109.484 19.5344 109.484C22.2937 109.484 23.6437 108.65 24.6719 106.29L33.0063 87.8467V109.503H39.0063V86.8217C39.0063 84.6436 38.1406 83.5874 36.3531 83.0436C32.0813 81.6999 29.2125 82.8592 27.9156 85.7686L19.3687 105.019L11.0906 85.7686C9.84688 82.8624 6.92813 81.6999 2.65312 83.0436C0.865625 83.5874 0 84.6405 0 86.8186V109.5H0.00625V109.503Z" fill="#00796B"/>
</g>
<g filter="url(#filter1_d)">
<path d="M42.0029 91.5032H48.0029V104.175C47.9561 104.8 48.2029 106.459 51.0967 106.503C52.5717 106.528 59.9123 106.503 60.0029 106.503V91.5032H66.0029C66.0279 91.5032 66.0029 110.153 66.0029 110.231C66.0342 114.831 60.2904 115.425 57.6498 115.503H42.0061V112.503C42.0373 112.503 56.9654 112.506 57.0092 112.503C60.4092 112.144 60.0061 110.272 60.0061 109.703V109.503H50.5936C45.3748 109.456 42.0467 107.156 42.0092 104.534C42.0029 104.291 42.1217 91.6157 42.0029 91.5032Z" fill="#00796B"/>
</g>
<g filter="url(#filter2_d)">
<path d="M69.0028 109.503H84.0247C85.9934 109.503 87.9059 109.091 89.4247 108.378C91.9559 107.216 92.9997 105.644 92.9997 103.578V99.3032C92.9997 94.6907 87.2809 94.5032 83.9997 94.5032H77.9997C75.6403 94.5032 75.2809 93.0782 74.9997 91.5032V88.5032C75.2809 87.3032 75.8059 85.6907 77.884 85.5032C80.2997 85.5032 92.9965 85.5032 92.9965 85.5032V82.5032H78.7278C76.3684 82.5032 68.9965 82.7844 68.9965 88.5032V92.2125C68.9965 94.8375 71.3028 96.9751 76.309 97.5001C76.8715 97.5376 77.434 97.5751 77.9934 97.5751C77.9934 97.5751 83.8247 97.4626 83.9934 97.5001C87.3684 97.5001 86.9934 100.125 86.9934 100.5V103.5C86.9934 103.913 86.8997 106.5 83.959 106.5C83.734 106.5 68.9934 106.5 68.9934 106.5V109.503H69.0028Z" fill="#F57F17"/>
</g>
<g filter="url(#filter3_d)">
<path d="M126 103.375C126 106.997 128.047 109.028 133.475 109.434C133.982 109.469 134.491 109.5 135 109.5H150V106.5H136.141C133.044 106.5 132 105.2 132 103.341V82.5H126V103.375V103.375Z" fill="#F57F17"/>
</g>
<g filter="url(#filter4_d)">
<path d="M95.9502 103.503V88.5032C95.9502 85.3157 97.5127 83.1157 101.938 82.5032H104.038H114.81H116.45C120.875 83.1157 122.95 85.3125 122.95 88.5032V103.447C122.95 106.031 122.278 107.419 120.088 108.319L124.738 112.5H117.988L114.644 109.5H110.716L104.041 109.538C103.075 109.538 102.056 109.403 100.938 109.097C97.5814 108.181 95.9502 106.419 95.9502 103.503ZM101.95 103.503C102.256 104.963 103.428 106.503 105.513 106.503H111.338L108 103.503H114.797L116.419 105.009C116.419 105.009 117 104.534 117 103.503C117 102.472 116.95 88.5032 116.95 88.5032C116.644 87.1469 115.269 85.5032 113.238 85.5032H105.516C103.175 85.5032 101.953 87.2157 101.953 88.8094L101.95 103.503Z" fill="#F57F17"/>
</g>
<g filter="url(#filter5_d)">
<path d="M144.372 79.3406C141.15 79.2531 138.691 79.5531 136.587 80.4375C135.991 80.6906 135.037 80.6969 134.937 81.4469C135.266 81.7906 135.316 82.3063 135.578 82.7281C136.078 83.5406 136.928 84.6313 137.684 85.2C138.512 85.825 139.366 86.4938 140.25 87.0344C141.825 87.9938 143.584 88.5438 145.103 89.5063C145.997 90.0719 146.884 90.7906 147.759 91.4281C148.191 91.7469 148.478 92.2375 149.041 92.4375C149.041 92.4063 149.041 92.3781 149.041 92.3469C148.747 91.9719 148.669 91.4563 148.4 91.0625C148.003 90.6656 147.606 90.2688 147.209 89.8719C146.047 88.3281 144.566 86.9688 142.997 85.8438C141.744 84.9438 138.941 83.7281 138.416 82.2719C138.384 82.2406 138.356 82.2125 138.322 82.1781C139.209 82.0781 140.25 81.7563 141.069 81.5375C142.447 81.1688 143.675 81.2656 145.097 80.8969C145.737 80.7125 146.378 80.5313 147.019 80.3469C147.019 80.225 147.019 80.1031 147.019 79.9813C146.3 79.2438 145.784 78.2688 145.003 77.6C142.95 75.8531 140.712 74.1094 138.409 72.6531C137.131 71.8469 135.55 71.3219 134.197 70.6375C133.741 70.4063 132.941 70.2875 132.641 69.9063C131.928 69 131.544 67.8469 130.994 66.7938C129.844 64.5813 128.712 62.1625 127.697 59.8344C127 58.2469 126.547 56.6781 125.681 55.2531C121.522 48.4156 117.044 44.2875 110.112 40.2313C108.637 39.3688 106.859 39.0281 104.981 38.5813C103.972 38.5219 102.966 38.4594 101.956 38.3969C101.341 38.1375 100.703 37.3875 100.122 37.0219C97.825 35.5688 91.9312 32.4125 90.2312 36.5625C89.1562 39.1813 91.8375 41.7375 92.7968 43.0656C93.4687 43.9969 94.3312 45.0406 94.8125 46.0906C95.1281 46.7781 95.1843 47.4688 95.4531 48.1969C96.1187 49.9906 97.1718 52.0344 98.0343 53.6938C98.4687 54.5344 98.95 55.4156 99.5 56.1656C99.8375 56.625 100.416 56.8281 100.509 57.5406C99.9437 58.3313 99.9125 59.5594 99.5937 60.5656C98.1625 65.0813 98.7031 70.6906 100.784 74.0281C101.422 75.0531 102.928 77.2531 104.997 76.4094C106.806 75.6719 106.403 73.3875 106.919 71.3719C107.034 70.9156 106.962 70.5813 107.194 70.275C107.194 70.3063 107.194 70.3344 107.194 70.3688C107.744 71.4656 108.291 72.5688 108.844 73.6656C110.066 75.6313 112.231 77.6844 114.062 79.0719C115.012 79.7906 115.762 81.0344 116.994 81.4531C116.994 81.4219 116.994 81.3938 116.994 81.3594C116.962 81.3594 116.934 81.3594 116.9 81.3594C116.662 80.9875 116.287 80.8344 115.984 80.5344C115.269 79.8313 114.469 78.9594 113.878 78.1531C112.209 75.8875 110.734 73.4063 109.391 70.825C108.75 69.5906 108.191 68.2344 107.65 66.9781C107.441 66.4938 107.444 65.7625 107.009 65.5125C106.416 66.4313 105.547 67.175 105.087 68.2594C104.356 69.9938 104.259 72.1125 103.991 74.3031C103.828 74.3594 103.9 74.3219 103.806 74.3938C102.531 74.0844 102.081 72.775 101.606 71.6469C100.406 68.7969 100.184 64.2094 101.241 60.9313C101.512 60.0813 102.747 57.4094 102.25 56.625C102.012 55.8406 101.225 55.3875 100.787 54.7906C100.241 54.0531 99.7 53.0781 99.3218 52.225C98.3406 50.0031 97.4093 47.4188 96.375 45.1719C95.8812 44.0969 95.0468 43.0125 94.3593 42.0594C93.6 41.0031 92.7468 40.225 92.1593 38.9469C91.95 38.4938 91.6656 37.7656 91.975 37.2969C92.075 36.9813 92.2125 36.85 92.525 36.7469C93.0562 36.3344 94.5343 36.8813 95.0906 37.1125C96.5593 37.7219 97.7843 38.3031 99.0281 39.1281C99.625 39.525 100.228 40.2906 100.95 40.5031C101.225 40.5031 101.5 40.5031 101.775 40.5031C103.066 40.8 104.509 40.5969 105.712 40.9625C107.844 41.6094 109.75 42.6156 111.481 43.7094C116.762 47.0438 121.078 51.7875 124.031 57.45C124.506 58.3625 124.712 59.2313 125.128 60.1969C125.972 62.1469 127.037 64.1531 127.875 66.0594C128.712 67.9625 129.531 69.8813 130.716 71.4656C131.341 72.2969 133.747 72.7438 134.837 73.2063C135.603 73.5313 136.859 73.8656 137.584 74.3031C138.972 75.1406 140.316 76.1375 141.612 77.05C142.275 77.5094 144.272 78.5125 144.372 79.3406Z" fill="#00796B"/>
</g>
<g filter="url(#filter6_d)">
<path d="M103.431 44.447C102.76 44.4345 102.285 44.5189 101.781 44.6314C101.781 44.6627 101.781 44.6908 101.781 44.7252C101.813 44.7252 101.841 44.7252 101.875 44.7252C102.197 45.3814 102.76 45.8095 103.156 46.3752C103.463 47.0158 103.766 47.6564 104.072 48.297C104.103 48.2658 104.132 48.2377 104.163 48.2064C104.728 47.8064 104.991 47.1689 104.988 46.1908C104.76 45.9502 104.725 45.6502 104.528 45.3658C104.266 44.9814 103.76 44.7658 103.431 44.447Z" fill="#00796B"/>
</g>
</g>
<defs>
<filter id="filter0_d" x="-4" y="82.4871" width="47.0063" height="35.0159" filterUnits="userSpaceOnUse" color-interpolation-filters="sRGB">
<feFlood flood-opacity="0" result="BackgroundImageFix"/>
<feColorMatrix in="SourceAlpha" type="matrix" values="0 0 0 0 0 0 0 0 0 0 0 0 0 0 0 0 0 0 127 0" result="hardAlpha"/>
<feOffset dy="4"/>
<feGaussianBlur stdDeviation="2"/>
<feComposite in2="hardAlpha" operator="out"/>
<feColorMatrix type="matrix" values="0 0 0 0 0 0 0 0 0 0 0 0 0 0 0 0 0 0 0.25 0"/>
<feBlend mode="normal" in2="BackgroundImageFix" result="effect1_dropShadow"/>
<feBlend mode="normal" in="SourceGraphic" in2="effect1_dropShadow" result="shape"/>
</filter>
<filter id="filter1_d" x="38.0029" y="91.5032" width="32.0111" height="32" filterUnits="userSpaceOnUse" color-interpolation-filters="sRGB">
<feFlood flood-opacity="0" result="BackgroundImageFix"/>
<feColorMatrix in="SourceAlpha" type="matrix" values="0 0 0 0 0 0 0 0 0 0 0 0 0 0 0 0 0 0 127 0" result="hardAlpha"/>
<feOffset dy="4"/>
<feGaussianBlur stdDeviation="2"/>
<feComposite in2="hardAlpha" operator="out"/>
<feColorMatrix type="matrix" values="0 0 0 0 0 0 0 0 0 0 0 0 0 0 0 0 0 0 0.25 0"/>
<feBlend mode="normal" in2="BackgroundImageFix" result="effect1_dropShadow"/>
<feBlend mode="normal" in="SourceGraphic" in2="effect1_dropShadow" result="shape"/>
</filter>
<filter id="filter2_d" x="64.9934" y="82.5032" width="32.0062" height="35" filterUnits="userSpaceOnUse" color-interpolation-filters="sRGB">
<feFlood flood-opacity="0" result="BackgroundImageFix"/>
<feColorMatrix in="SourceAlpha" type="matrix" values="0 0 0 0 0 0 0 0 0 0 0 0 0 0 0 0 0 0 127 0" result="hardAlpha"/>
<feOffset dy="4"/>
<feGaussianBlur stdDeviation="2"/>
<feComposite in2="hardAlpha" operator="out"/>
<feColorMatrix type="matrix" values="0 0 0 0 0 0 0 0 0 0 0 0 0 0 0 0 0 0 0.25 0"/>
<feBlend mode="normal" in2="BackgroundImageFix" result="effect1_dropShadow"/>
<feBlend mode="normal" in="SourceGraphic" in2="effect1_dropShadow" result="shape"/>
</filter>
<filter id="filter3_d" x="122" y="82.5" width="32" height="35" filterUnits="userSpaceOnUse" color-interpolation-filters="sRGB">
<feFlood flood-opacity="0" result="BackgroundImageFix"/>
<feColorMatrix in="SourceAlpha" type="matrix" values="0 0 0 0 0 0 0 0 0 0 0 0 0 0 0 0 0 0 127 0" result="hardAlpha"/>
<feOffset dy="4"/>
<feGaussianBlur stdDeviation="2"/>
<feComposite in2="hardAlpha" operator="out"/>
<feColorMatrix type="matrix" values="0 0 0 0 0 0 0 0 0 0 0 0 0 0 0 0 0 0 0.25 0"/>
<feBlend mode="normal" in2="BackgroundImageFix" result="effect1_dropShadow"/>
<feBlend mode="normal" in="SourceGraphic" in2="effect1_dropShadow" result="shape"/>
</filter>
<filter id="filter4_d" x="91.9502" y="82.5032" width="36.7875" height="37.9969" filterUnits="userSpaceOnUse" color-interpolation-filters="sRGB">
<feFlood flood-opacity="0" result="BackgroundImageFix"/>
<feColorMatrix in="SourceAlpha" type="matrix" values="0 0 0 0 0 0 0 0 0 0 0 0 0 0 0 0 0 0 127 0" result="hardAlpha"/>
<feOffset dy="4"/>
<feGaussianBlur stdDeviation="2"/>
<feComposite in2="hardAlpha" operator="out"/>
<feColorMatrix type="matrix" values="0 0 0 0 0 0 0 0 0 0 0 0 0 0 0 0 0 0 0.25 0"/>
<feBlend mode="normal" in2="BackgroundImageFix" result="effect1_dropShadow"/>
<feBlend mode="normal" in="SourceGraphic" in2="effect1_dropShadow" result="shape"/>
</filter>
<filter id="filter5_d" x="85.9812" y="34.5002" width="67.0594" height="65.9373" filterUnits="userSpaceOnUse" color-interpolation-filters="sRGB">
<feFlood flood-opacity="0" result="BackgroundImageFix"/>
<feColorMatrix in="SourceAlpha" type="matrix" values="0 0 0 0 0 0 0 0 0 0 0 0 0 0 0 0 0 0 127 0" result="hardAlpha"/>
<feOffset dy="4"/>
<feGaussianBlur stdDeviation="2"/>
<feComposite in2="hardAlpha" operator="out"/>
<feColorMatrix type="matrix" values="0 0 0 0 0 0 0 0 0 0 0 0 0 0 0 0 0 0 0.25 0"/>
<feBlend mode="normal" in2="BackgroundImageFix" result="effect1_dropShadow"/>
<feBlend mode="normal" in="SourceGraphic" in2="effect1_dropShadow" result="shape"/>
</filter>
<filter id="filter6_d" x="97.7815" y="44.4458" width="11.2063" height="11.8512" filterUnits="userSpaceOnUse" color-interpolation-filters="sRGB">
<feFlood flood-opacity="0" result="BackgroundImageFix"/>
<feColorMatrix in="SourceAlpha" type="matrix" values="0 0 0 0 0 0 0 0 0 0 0 0 0 0 0 0 0 0 127 0" result="hardAlpha"/>
<feOffset dy="4"/>
<feGaussianBlur stdDeviation="2"/>
<feComposite in2="hardAlpha" operator="out"/>
<feColorMatrix type="matrix" values="0 0 0 0 0 0 0 0 0 0 0 0 0 0 0 0 0 0 0.25 0"/>
<feBlend mode="normal" in2="BackgroundImageFix" result="effect1_dropShadow"/>
<feBlend mode="normal" in="SourceGraphic" in2="effect1_dropShadow" result="shape"/>
</filter>
<clipPath id="clip0">
<rect width="150" height="150" fill="white"/>
</clipPath>
</defs>
</svg>
