<svg width="154" height="150" viewBox="0 0 154 150" fill="none" xmlns="http://www.w3.org/2000/svg">
<g clip-path="url(#clip0)" filter="url(#filter0_d)">
<path d="M128.125 15.625H21.875L31.25 121.875L75 134.375L118.75 121.875L128.125 15.625Z" fill="#E65100"/>
<path d="M75 25V124.687L110 114.687L117.812 25H75Z" fill="#FF6D00"/>
<path d="M75 78.125V65.625H101.875L99.6875 101.562L75 109.687V96.5625L87.8125 92.1875L88.75 78.125H75V78.125ZM102.813 53.125L103.75 40.625H75V53.125H102.813Z" fill="white"/>
<path d="M75 96.5625V109.687L50.3125 101.562L49.0625 84.375H61.5625L62.1875 92.1875L75 96.5625ZM59.6875 53.125H75V40.625H46.5625L48.75 78.125H75V65.625H60.625L59.6875 53.125Z" fill="#EEEEEE"/>
</g>
<defs>
<filter id="filter0_d" x="-4" y="0" width="158" height="158" filterUnits="userSpaceOnUse" color-interpolation-filters="sRGB">
<feFlood flood-opacity="0" result="BackgroundImageFix"/>
<feColorMatrix in="SourceAlpha" type="matrix" values="0 0 0 0 0 0 0 0 0 0 0 0 0 0 0 0 0 0 127 0" result="hardAlpha"/>
<feOffset dy="4"/>
<feGaussianBlur stdDeviation="2"/>
<feColorMatrix type="matrix" values="0 0 0 0 0 0 0 0 0 0 0 0 0 0 0 0 0 0 0.25 0"/>
<feBlend mode="normal" in2="BackgroundImageFix" result="effect1_dropShadow"/>
<feBlend mode="normal" in="SourceGraphic" in2="effect1_dropShadow" result="shape"/>
</filter>
<clipPath id="clip0">
<rect width="150" height="150" fill="white"/>
</clipPath>
</defs>
</svg>
