<svg width="150" height="150" viewBox="0 0 150 150" fill="none" xmlns="http://www.w3.org/2000/svg">
<g filter="url(#filter0_d)">
<path d="M124.584 81.1125C119.778 81.1375 115.615 82.2906 112.128 84.0125C110.853 81.4656 109.559 79.225 109.343 77.5594C109.09 75.6156 108.797 74.4531 109.103 72.1375C109.409 69.8219 110.75 66.5406 110.731 66.2937C110.712 66.0469 110.431 64.8687 107.659 64.8469C104.887 64.8281 102.515 65.3812 102.237 66.1125C101.959 66.8437 101.425 68.4906 101.093 70.2093C100.609 72.7218 95.5591 81.6875 92.6934 86.375C91.7559 84.5437 90.9591 82.9312 90.7934 81.6562C90.5403 79.7125 90.2466 78.55 90.5528 76.2344C90.8591 73.9187 92.1997 70.6375 92.1809 70.3906C92.1622 70.1437 91.8809 68.9656 89.1091 68.9437C86.3372 68.925 83.9653 69.4781 83.6872 70.2093C83.4091 70.9406 83.1091 72.65 82.5434 74.3062C81.9747 75.9594 75.2653 90.9125 73.5059 94.7906C72.6091 96.7656 71.8309 98.3531 71.2809 99.4343C71.2778 99.4312 71.2778 99.4281 71.2778 99.4281C71.2778 99.4281 71.2434 99.5 71.1872 99.6218C70.7153 100.544 70.4372 101.053 70.4372 101.053C70.4372 101.053 70.4403 101.059 70.4466 101.072C70.0716 101.75 69.6716 102.378 69.4747 102.378C69.3372 102.378 69.0591 100.575 69.5341 98.1C70.5341 92.9125 72.9309 84.825 72.9091 84.5437C72.8966 84.4 73.3559 82.9906 71.3434 82.2531C69.3872 81.5375 68.6903 82.7312 68.5122 82.7344C68.3403 82.7375 68.2122 83.1562 68.2122 83.1562C68.2122 83.1562 70.3903 74.0593 64.0559 74.0593C60.0934 74.0593 54.6059 78.3937 51.9028 82.3219C50.1966 83.2531 46.5434 85.2468 42.6716 87.375C41.1841 88.1937 39.6653 89.0281 38.2247 89.8218C38.1278 89.7125 38.0278 89.6062 37.9278 89.4968C30.2434 81.3 16.0434 75.5031 16.6434 64.4812C16.8622 60.475 18.2559 49.925 43.9341 37.1312C64.9684 26.65 81.8091 29.5344 84.7184 35.925C88.8747 45.0594 75.7184 62.0312 53.8747 64.4812C45.5528 65.4156 41.1684 62.1875 40.0778 60.9875C38.9309 59.7219 38.7591 59.6656 38.3309 59.9031C37.6341 60.2906 38.0747 61.4062 38.3309 62.0719C38.9841 63.7687 41.6591 66.7781 46.2216 68.2781C50.2372 69.5969 60.0091 70.3187 71.8247 65.7469C85.0622 60.6281 95.3966 46.3844 92.3591 34.4812C89.2716 22.375 69.1966 18.3937 50.1966 25.1437C38.8747 29.1625 26.6341 35.4687 17.8309 43.7C7.3653 53.4875 5.69655 62.0094 6.38405 65.5687C8.8278 78.2187 26.2622 86.4562 33.2434 92.5593C32.8997 92.75 32.5747 92.9281 32.2809 93.0906C28.7809 94.8218 15.4903 101.778 12.1653 109.125C8.39343 117.459 12.7653 123.441 15.6591 124.247C24.6247 126.741 33.8247 122.253 38.7716 114.878C43.7153 107.506 43.1122 97.9031 40.8434 93.5218C40.8153 93.4687 40.7841 93.4156 40.7559 93.3593C41.6591 92.825 42.5809 92.2812 43.4934 91.7437C45.2747 90.6968 47.0247 89.7219 48.5403 88.8969C47.6903 91.2218 47.0684 94.0125 46.7466 98.0406C46.3653 102.772 48.3059 108.887 50.8434 111.294C51.9622 112.353 53.3059 112.378 54.1559 112.378C57.1091 112.378 58.4559 109.922 59.9403 107.016C61.7591 103.453 63.3747 99.3031 63.3747 99.3031C63.3747 99.3031 61.3497 110.509 66.8684 110.509C68.8809 110.509 70.9028 107.9 71.8059 106.572C71.8091 106.587 71.8091 106.594 71.8091 106.594C71.8091 106.594 71.8622 106.506 71.9653 106.334C72.1747 106.016 72.2934 105.812 72.2934 105.812C72.2934 105.812 72.2966 105.791 72.3028 105.753C73.1122 104.35 74.9059 101.15 77.5934 95.8719C81.0684 89.0531 84.3997 80.5094 84.3997 80.5094C84.3997 80.5094 84.7091 82.5969 85.7247 86.0531C86.3216 88.0844 87.5903 90.3312 88.5934 92.4875C87.7872 93.6062 87.2934 94.2468 87.2934 94.2468C87.2934 94.2468 87.2966 94.2593 87.3059 94.2812C86.6622 95.1375 85.9403 96.0593 85.1841 96.9593C82.4403 100.225 79.1747 103.956 78.7372 105.031C78.2216 106.3 78.3434 107.231 79.3403 107.984C80.0684 108.531 81.3622 108.619 82.7153 108.528C85.1809 108.362 86.9122 107.75 87.7684 107.378C89.1028 106.906 90.6559 106.166 92.1122 105.094C94.8028 103.116 96.4247 100.287 96.2684 96.5375C96.1809 94.4718 95.5247 92.425 94.6903 90.4937C94.9341 90.1437 95.1778 89.7875 95.4247 89.4312C99.6653 83.2312 102.956 76.4187 102.956 76.4187C102.956 76.4187 103.265 78.5062 104.281 81.9625C104.793 83.7094 105.809 85.6187 106.722 87.4875C102.734 90.7281 100.262 94.4937 99.4028 96.9625C97.8153 101.531 99.0591 103.6 101.39 104.072C102.447 104.284 103.94 103.8 105.062 103.325C106.459 102.862 108.137 102.091 109.706 100.937C112.397 98.9593 114.984 96.1906 114.828 92.4437C114.756 90.7375 114.293 89.0437 113.665 87.4187C117.047 86.0094 121.422 85.2281 126.997 85.8781C138.956 87.275 141.3 94.7406 140.853 97.8656C140.403 100.991 137.897 102.709 137.056 103.228C136.218 103.747 135.962 103.928 136.031 104.312C136.134 104.872 136.522 104.853 137.237 104.731C138.222 104.566 143.515 102.191 143.743 96.4218C144.028 89.0906 137.012 81.0468 124.584 81.1125ZM32.4059 112.187C28.4434 116.509 22.9122 118.141 20.5372 116.766C17.9747 115.281 18.9903 108.919 23.8497 104.331C26.8122 101.537 30.6372 98.9625 33.1747 97.3781C33.7528 97.0312 34.5997 96.5218 35.6309 95.9031C35.8028 95.8062 35.8997 95.7531 35.8997 95.7531L35.8966 95.7468C36.0966 95.6281 36.2997 95.5062 36.5091 95.3781C38.2809 101.906 36.5653 107.653 32.4059 112.187ZM61.2653 92.5718C59.8872 95.9343 56.9997 104.541 55.2403 104.078C53.7309 103.681 52.8122 97.1406 54.9403 90.7031C56.0091 87.4625 58.2966 83.5906 59.6403 82.0875C61.8028 79.6687 64.1841 78.8781 64.7622 79.8594C65.4966 81.1094 62.1309 90.4625 61.2653 92.5718ZM85.1059 103.947C84.5216 104.253 83.9841 104.444 83.7372 104.297C83.5528 104.187 83.9778 103.784 83.9778 103.784C83.9778 103.784 86.9591 100.575 88.1341 99.1156C88.8184 98.2656 89.6091 97.2562 90.4716 96.1312C90.4778 96.2437 90.4809 96.3562 90.4809 96.4656C90.4747 100.309 86.7622 102.903 85.1059 103.947ZM103.472 99.7593C103.034 99.45 103.109 98.4468 104.543 95.3187C105.106 94.0906 106.393 92.025 108.625 90.05C108.884 90.8625 109.04 91.6406 109.037 92.3656C109.009 97.2031 105.559 99.0093 103.472 99.7593Z" fill="#F06292"/>
</g>
<defs>
<filter id="filter0_d" x="-4" y="0" width="158" height="158" filterUnits="userSpaceOnUse" color-interpolation-filters="sRGB">
<feFlood flood-opacity="0" result="BackgroundImageFix"/>
<feColorMatrix in="SourceAlpha" type="matrix" values="0 0 0 0 0 0 0 0 0 0 0 0 0 0 0 0 0 0 127 0" result="hardAlpha"/>
<feOffset dy="4"/>
<feGaussianBlur stdDeviation="2"/>
<feColorMatrix type="matrix" values="0 0 0 0 0 0 0 0 0 0 0 0 0 0 0 0 0 0 0.25 0"/>
<feBlend mode="normal" in2="BackgroundImageFix" result="effect1_dropShadow"/>
<feBlend mode="normal" in="SourceGraphic" in2="effect1_dropShadow" result="shape"/>
</filter>
</defs>
</svg>
